<?xml version="1.0" encoding="utf-8"?>
<svg
  height="466px"
  version="1.1"
  viewBox="0 0 32 40"
  width="324px"
  xmlns="http://www.w3.org/2000/svg"
  xmlns:xlink="http://www.w3.org/1999/xlink"
  >
  <g transform="translate(0, -5) scale(0.1)"
    transform-origin="center">
    <ellipse
      opacity=".1"
      cx="163.035"
      cy="451.02"
      rx="79.008"
      ry="14.586"
      fill="#000"
      />
    <path
      d="
        M239.196 380.011
        c40.817 0 59.396-90.38 59.396-124.649 0-26.711-18.431-42.898-42.661-42.898-24.079 0-43.627 10.354-43.87 23.176 0 33.838-5.956 144.371 27.135 144.371Z
        m-149.082 0
        c-40.817 0-59.395-90.38-59.395-124.649 0-26.711 18.43-42.898 42.66-42.898 24.08 0 43.628 10.354 43.87 23.176.001 33.838 5.957 144.371-27.135 144.371Z
      "
      fill="#fff"
      stroke="#000"
      stroke-width="12.155"
      />
    <path
      d="
        M56.248 244.498
        v-.002
        c-.044-.418.04-.66.127-.818.103-.187.297-.41.624-.595.677-.385 1.625-.454 2.508.062 30.316 17.77 65.284 27.958 103.3 27.958 38.024 0 73.64-10.386 104.152-28.466.876-.52 1.822-.456 2.501-.073.328.184.524.406.628.594.088.159.174.401.131.821-4.72 46.773-30.09 85.442-64.19 103.241-11.263 5.88-19.008 16.094-25.81 25.065
        l-.365.481
        v.002
        c-5.529 7.293-10.533 13.824-16.648 18.637-6.115-4.813-11.118-11.344-16.647-18.637
        l-.001-.002-.364-.481
        c-6.802-8.971-14.547-19.185-25.81-25.065-33.97-17.731-59.276-56.175-64.136-102.722Z
      "
      fill="#FFDF6F"
      stroke="#000"
      stroke-width="12.093"
      />
    <ellipse
      cx="163.44"
      cy="243.572"
      rx="106.965"
      ry="35.655"
      fill="#000"
      stroke="#000"
      stroke-width="12.155"
      />
    <path
      d="
        M77.543 303.537
        s52.761 17.828 86.707 17.828
        c33.947 0 86.707-17.828 86.707-17.828
      "
      fill="none"
      stroke="#000"
      stroke-width="12.155"
      stroke-linecap="round"
      />
    <circle
      cx="24.187"
      cy="24.187"
      r="24.187"
      transform="matrix(-1, 0, 0, 1, 87.021, 66.917)"
      fill="#000"
      />
    <path
      d="m58.803 87.476 45.149 45.149z"
      
      stroke="#000"
      stroke-width="12.093"
      />
    <circle
      cx="260.36"
      cy="91.104"
      r="24.187"
      fill="#000"
      />
    <path
      d="m264.794 87.476-45.148 45.149z"
      
      stroke="#000"
      stroke-width="12.093"
      />
    <path
      clip-rule="evenodd"
      d="
        M69.7 235.434
        c-13.036-6.206-20.623-20.143-18.082-34.355 10.908-60.999 56.365-106.75 110.785-106.75 54.553 0 100.098 45.973 110.864 107.194 2.504 14.238-5.144 28.168-18.225 34.323-27.989 13.172-59.252 20.535-92.235 20.535-33.326 0-64.896-7.517-93.107-20.947Z
      "
      fill="#FFDF6F"
      fill-rule="evenodd"
      />
    <path
      d="
        M57.57 202.144
        c10.54-58.942 54.107-101.769 104.833-101.769
        V88.282
        c-58.114 0-105.461 48.676-116.737 111.733
        l11.905 2.129Z
        m104.833-101.769
        c50.849 0 94.505 43.036 104.909 102.195
        l11.91-2.094
        C268.094 137.193 220.66 88.282 162.403 88.282
        v12.093Z
        m90.064 130
        c-27.201 12.801-57.586 19.959-89.66 19.959
        v12.093
        c33.891 0 66.032-7.567 94.81-21.109
        l-5.15-10.943Z
        m-89.66 19.959
        c-32.408 0-63.091-7.308-90.508-20.36
        L67.1 240.893
        c29.007 13.809 61.463 21.534 95.707 21.534
        v-12.093Z
        m104.505-47.764
        c2.007 11.416-4.105 22.751-14.845 27.805
        l5.15 10.943
        c15.421-7.258 24.606-23.781 21.605-40.842
        l-11.91 2.094Z
        m-221.646-2.555
        c-3.045 17.03 6.066 33.562 21.434 40.878
        l5.199-10.919
        c-10.704-5.096-16.766-16.436-14.728-27.83
        l-11.905-2.129Z
      "
      fill="#000"
      />
    <path
      fill-rule="evenodd"
      clip-rule="evenodd"
      d="
        M92.959 220.269
        C82.466 215.995 76.24 204.83 79.877 194.1
        c11.213-33.093 43.922-57.041 82.527-57.041 38.604 0 71.313 23.948 82.526 57.041 3.636 10.73-2.589 21.895-13.082 26.169-21.431 8.728-44.876 13.537-69.444 13.537-24.569 0-48.014-4.809-69.445-13.537Z
      "
      fill="#000"
    />
    <ellipse
      cx="190.218"
      cy="188.657"
      rx="20.156"
      ry="16.125"
      fill="#fff"
      />
    <ellipse
      cx="132.518"
      cy="188.667"
      rx="20.156"
      ry="16.125"
      fill="#fff"
      />
  </g>
</svg>