<?xml version="1.0" encoding="utf-8"?>
<svg
  height="1024px"
  version="1.1"
  viewBox="0 0 1024 1024"
  width="1024px"
  xmlns="http://www.w3.org/2000/svg"
  xmlns:xlink="http://www.w3.org/1999/xlink">
  <g
    clip-rule="evenodd"
    fill-rule="evenodd"
    transform="translate(-15, -15) scale(0.05)"
    transform-origin="center">
    <path fill="#d8ba3f" d="M 504.5,315.5 C 528.706,314.633 552.373,317.633 575.5,324.5C 574.432,325.434 573.099,325.768 571.5,325.5C 504.314,308.299 444.314,321.966 391.5,366.5C 391.672,365.508 391.338,364.842 390.5,364.5C 404.917,351.11 421.251,340.443 439.5,332.5C 460.315,323.214 481.981,317.547 504.5,315.5 Z"/>
    <path fill="#b19745" d="M 647.5,325.5 C 646.609,327.609 645.442,329.609 644,331.5C 643.851,328.804 645.018,326.804 647.5,325.5 Z"/>
    <path fill="#1f1b1a" d="M 571.5,325.5 C 648.434,350.771 695.1,403.104 711.5,482.5C 711.38,483.586 710.713,484.253 709.5,484.5C 700.537,484.037 691.537,484.037 682.5,484.5C 682.141,482.234 682.808,480.401 684.5,479C 691.917,477.803 699.25,476.303 706.5,474.5C 706.5,472.833 706.5,471.167 706.5,469.5C 698.02,472.12 689.353,473.786 680.5,474.5C 679.862,472.54 679.862,470.707 680.5,469C 684.49,467.673 688.49,466.34 692.5,465C 696.152,464.501 699.818,464.335 703.5,464.5C 703.66,462.801 703.494,461.134 703,459.5C 702.107,458.919 701.107,458.585 700,458.5C 694.026,460.269 688.192,462.436 682.5,465C 680.866,465.494 679.199,465.66 677.5,465.5C 677.643,463.738 677.309,462.071 676.5,460.5C 684.423,458.116 692.423,456.116 700.5,454.5C 700.949,452.023 700.283,450.023 698.5,448.5C 690.818,452.172 682.818,454.838 674.5,456.5C 674.414,454.323 673.747,452.323 672.5,450.5C 672.833,450.167 673.167,449.833 673.5,449.5C 680.395,447.353 687.395,445.52 694.5,444C 697.093,441.811 697.093,439.644 694.5,437.5C 686.743,441.826 678.577,444.159 670,444.5C 668.759,443.123 668.592,441.79 669.5,440.5C 676.128,437.902 682.795,435.402 689.5,433C 692.174,430.872 692.007,429.039 689,427.5C 682.092,431.471 674.758,434.471 667,436.5C 665.606,435.387 664.439,434.053 663.5,432.5C 663.833,432.167 664.167,431.833 664.5,431.5C 671.717,428.389 678.717,425.056 685.5,421.5C 684.974,419.77 683.974,418.436 682.5,417.5C 675.833,421.167 669.167,424.833 662.5,428.5C 659.501,426.854 658.501,424.521 659.5,421.5C 666.413,418.222 672.746,414.222 678.5,409.5C 678.253,406.918 676.92,406.085 674.5,407C 668.561,411.429 662.228,415.263 655.5,418.5C 654.386,417.277 654.219,415.944 655,414.5C 660.229,409.929 665.395,405.429 670.5,401C 670.07,399.566 669.236,398.399 668,397.5C 662.833,402 657.667,406.5 652.5,411C 649.678,411.699 648.012,410.532 647.5,407.5C 648,406.5 648.5,405.5 649,404.5C 653.982,400.685 658.482,396.352 662.5,391.5C 661.788,389.954 660.622,388.954 659,388.5C 654.045,393.455 649.045,398.455 644,403.5C 640.969,402.494 639.635,400.494 640,397.5C 644.409,392.42 649.409,388.086 655,384.5C 655.557,382.414 654.724,381.081 652.5,380.5C 646.537,384.795 641.204,389.795 636.5,395.5C 634.77,394.974 633.436,393.974 632.5,392.5C 637.384,388.114 642.05,383.614 646.5,379C 646.07,377.566 645.236,376.399 644,375.5C 640.201,380.301 636.034,384.801 631.5,389C 629.536,389.624 627.869,389.124 626.5,387.5C 625.417,386.635 625.251,385.635 626,384.5C 630.283,378.901 634.783,373.568 639.5,368.5C 638.788,366.954 637.622,365.954 636,365.5C 631.409,371.441 626.742,377.441 622,383.5C 620.027,382.36 618.193,381.027 616.5,379.5C 619.942,373.623 624.109,368.29 629,363.5C 629.852,359.017 628.186,357.35 624,358.5C 621.164,365.331 617.498,371.664 613,377.5C 611.915,376.707 610.748,376.04 609.5,375.5C 608.417,374.635 608.251,373.635 609,372.5C 612.081,366.669 615.415,361.002 619,355.5C 620.174,351.339 618.841,350.005 615,351.5C 612.771,358.963 609.271,365.63 604.5,371.5C 600.998,371.381 599.498,369.715 600,366.5C 603.276,360.892 606.943,355.558 611,350.5C 612.126,345.719 610.46,344.052 606,345.5C 604.044,353.44 600.378,360.44 595,366.5C 593.1,365.923 591.267,365.256 589.5,364.5C 589.167,364.5 588.833,364.5 588.5,364.5C 587.909,363.849 587.243,363.182 586.5,362.5C 589.812,354.54 594.145,347.206 599.5,340.5C 597.597,337.207 594.931,336.207 591.5,337.5C 589.81,345.902 587.144,353.902 583.5,361.5C 581.883,360.962 580.216,360.629 578.5,360.5C 578.077,359.735 577.743,358.902 577.5,358C 579.753,350.901 582.587,344.068 586,337.5C 587,332.833 585.333,331.5 581,333.5C 579.313,340.916 577.313,348.25 575,355.5C 574.583,356.756 573.75,357.423 572.5,357.5C 570.708,357.634 569.042,357.301 567.5,356.5C 569.577,348.269 572.244,340.269 575.5,332.5C 575.199,329.511 573.532,328.178 570.5,328.5C 569.634,335.297 568.134,341.964 566,348.5C 565.576,351.025 564.41,353.025 562.5,354.5C 560.784,354.371 559.117,354.038 557.5,353.5C 557.705,344.848 559.705,336.681 563.5,329C 562.587,324.405 560.42,323.572 557,326.5C 556.222,334.059 555.055,341.559 553.5,349C 553.316,350.376 552.649,351.209 551.5,351.5C 550.167,351.5 548.833,351.5 547.5,351.5C 548.379,342.011 549.713,332.678 551.5,323.5C 549.533,323.261 547.699,323.594 546,324.5C 544.947,332.802 544.447,341.135 544.5,349.5C 541.748,349.762 538.748,349.762 535.5,349.5C 537.159,340.227 538.493,330.894 539.5,321.5C 536.921,321.083 534.754,321.75 533,323.5C 533.227,326.291 533.727,329.124 534.5,332C 533.942,337.527 533.275,343.027 532.5,348.5C 531.167,348.5 529.833,348.5 528.5,348.5C 527.833,348.5 527.167,348.5 526.5,348.5C 526.481,339.13 526.647,329.797 527,320.5C 523.553,318.647 521.72,319.647 521.5,323.5C 522.408,331.805 522.741,340.139 522.5,348.5C 520.5,348.5 518.5,348.5 516.5,348.5C 516.39,339.146 516.723,329.812 517.5,320.5C 515.833,320.5 514.167,320.5 512.5,320.5C 512.5,329.833 512.5,339.167 512.5,348.5C 510.167,348.5 507.833,348.5 505.5,348.5C 505.263,340.472 505.597,332.472 506.5,324.5C 506.573,320.927 504.906,319.76 501.5,321C 500.903,322.062 500.57,323.228 500.5,324.5C 501.435,332.85 502.435,341.183 503.5,349.5C 502.5,349.5 501.5,349.5 500.5,349.5C 499.167,349.5 497.833,349.5 496.5,349.5C 495.595,344.374 494.928,339.207 494.5,334C 494.58,331.292 494.913,328.625 495.5,326C 494.557,323.019 492.557,322.019 489.5,323C 488.903,324.062 488.57,325.228 488.5,326.5C 490.17,334.513 491.837,342.513 493.5,350.5C 491.139,350.674 488.806,351.007 486.5,351.5C 485.351,351.209 484.684,350.376 484.5,349C 483.752,343.978 482.752,339.145 481.5,334.5C 484.013,328.361 482.013,325.028 475.5,324.5C 475.932,328.945 476.932,333.279 478.5,337.5C 479.074,342.286 480.074,346.952 481.5,351.5C 480.817,353.176 479.483,353.843 477.5,353.5C 475.603,351.731 474.436,349.398 474,346.5C 472.213,340.639 471.213,334.639 471,328.5C 468.173,327.001 466.34,327.835 465.5,331C 468.226,338.74 470.559,346.573 472.5,354.5C 471.07,355.537 469.403,356.204 467.5,356.5C 463.442,349.516 460.609,341.85 459,333.5C 456.731,332.536 454.898,333.202 453.5,335.5C 457.827,342.821 460.493,350.488 461.5,358.5C 459.831,359.89 458.164,360.223 456.5,359.5C 453.302,352.739 450.802,345.739 449,338.5C 447.267,336.398 445.267,336.065 443,337.5C 442.333,338.833 442.333,340.167 443,341.5C 447.92,347.985 451.087,354.985 452.5,362.5C 450.189,363.214 448.022,364.214 446,365.5C 443.207,358.668 440.874,351.668 439,344.5C 437.274,343.424 435.441,343.257 433.5,344C 432.483,345.049 432.316,346.216 433,347.5C 436.256,353.754 439.423,360.088 442.5,366.5C 441.349,367.731 440.183,367.731 439,366.5C 435.778,360.726 433.112,354.726 431,348.5C 426.814,347.35 425.148,349.017 426,353.5C 429.749,358.662 433.249,363.996 436.5,369.5C 435.833,370.833 434.833,371.833 433.5,372.5C 429.413,366.993 426.413,360.993 424.5,354.5C 422.052,354.01 420.385,354.843 419.5,357C 422.329,362.996 425.662,368.662 429.5,374C 428.303,375.52 426.803,376.687 425,377.5C 421.625,371.915 418.125,366.415 414.5,361C 412.339,360.278 410.672,360.945 409.5,363C 413.455,368.623 417.788,373.957 422.5,379C 420.792,381.681 418.458,383.015 415.5,383C 411.008,377.684 407.008,372.017 403.5,366C 399.513,365.661 398.013,367.494 399,371.5C 404.417,375.663 408.917,380.663 412.5,386.5C 411.315,389.269 409.482,390.269 407,389.5C 402.973,384.306 399.14,378.973 395.5,373.5C 391.917,372.27 390.751,373.604 392,377.5C 396.701,381.866 401.034,386.533 405,391.5C 405.28,394.002 404.113,395.669 401.5,396.5C 397.689,391.521 393.689,386.688 389.5,382C 386.53,381.978 385.364,383.478 386,386.5C 390.349,390.682 394.515,395.015 398.5,399.5C 397.5,400.833 396.5,402.167 395.5,403.5C 389.517,399.349 384.184,394.515 379.5,389C 372.538,389.278 371.871,391.611 377.5,396C 382.776,398.888 387.609,402.388 392,406.5C 391.778,408.456 390.945,410.29 389.5,412C 383.123,409.335 377.457,405.335 372.5,400C 366.415,399.725 365.415,401.725 369.5,406C 375.384,408.768 380.717,412.268 385.5,416.5C 383.959,419.873 381.626,420.373 378.5,418C 373.306,416.153 368.472,413.653 364,410.5C 361.739,411.772 361.239,413.438 362.5,415.5C 368.873,418.177 375.206,420.843 381.5,423.5C 380.396,425.389 379.063,427.055 377.5,428.5C 370.906,425.287 364.406,421.953 358,418.5C 355.41,419.687 354.91,421.52 356.5,424C 362.615,426.224 368.615,428.724 374.5,431.5C 375.645,432.776 375.645,434.109 374.5,435.5C 372.926,436.631 371.259,436.798 369.5,436C 363.954,433.978 358.454,431.811 353,429.5C 350.843,430.385 350.01,432.052 350.5,434.5C 357.44,436.757 364.44,438.924 371.5,441C 370.711,445.602 368.045,447.269 363.5,446C 357.932,443.964 352.432,441.798 347,439.5C 343.655,439.859 342.822,441.526 344.5,444.5C 351.759,446.815 359.092,448.815 366.5,450.5C 366.868,453.056 366.034,455.056 364,456.5C 356.617,453.982 349.117,451.982 341.5,450.5C 341.5,452.167 341.5,453.833 341.5,455.5C 348.811,456.962 356.145,458.296 363.5,459.5C 363.167,461.5 362.833,463.5 362.5,465.5C 356.219,464.596 350.219,462.763 344.5,460C 342.19,459.503 339.857,459.337 337.5,459.5C 336.965,462.238 337.965,464.072 340.5,465C 347.117,466.484 353.784,467.651 360.5,468.5C 360.326,470.861 359.993,473.194 359.5,475.5C 352.28,474.316 345.28,472.316 338.5,469.5C 335.483,470.38 334.816,472.214 336.5,475C 343.507,476.568 350.507,478.068 357.5,479.5C 357.5,481.5 357.5,483.5 357.5,485.5C 349.178,484.406 340.845,483.406 332.5,482.5C 332.5,484.167 332.5,485.833 332.5,487.5C 340.486,488.099 348.486,488.432 356.5,488.5C 357.575,492.923 355.908,494.923 351.5,494.5C 344.824,493.164 338.157,491.83 331.5,490.5C 331.5,492.167 331.5,493.833 331.5,495.5C 339.63,496.855 347.63,498.188 355.5,499.5C 354.596,500.209 354.263,501.209 354.5,502.5C 349.968,502.182 345.634,502.515 341.5,503.5C 338.488,504.995 336.155,504.162 334.5,501C 332.527,500.505 330.527,500.338 328.5,500.5C 328.286,502.144 328.62,503.644 329.5,505C 333.595,507.312 337.928,509.146 342.5,510.5C 346.303,508.739 350.303,507.739 354.5,507.5C 354.5,509.5 354.5,511.5 354.5,513.5C 346.5,513.5 338.5,513.5 330.5,513.5C 330.5,514.833 330.5,516.167 330.5,517.5C 334.833,517.5 339.167,517.5 343.5,517.5C 346.625,518.479 349.958,518.813 353.5,518.5C 353.5,519.5 353.5,520.5 353.5,521.5C 345.781,519.397 338.115,519.064 330.5,520.5C 329.199,521.884 329.199,523.384 330.5,525C 332.473,525.495 334.473,525.662 336.5,525.5C 341.975,526.489 347.642,526.822 353.5,526.5C 353.719,527.675 353.386,528.675 352.5,529.5C 348.446,529.936 344.446,529.269 340.5,527.5C 338.631,528.068 336.797,528.734 335,529.5C 330.303,527.26 328.303,528.593 329,533.5C 329.71,534.973 330.876,535.64 332.5,535.5C 334.435,536.15 336.435,536.483 338.5,536.5C 339.5,537.167 340.5,537.833 341.5,538.5C 337.729,538.906 334.062,539.739 330.5,541C 329.14,542.938 329.473,544.604 331.5,546C 338.345,548.355 344.678,547.355 350.5,543C 352.5,542.333 354.5,542.333 356.5,543C 357.482,545.738 358.148,548.572 358.5,551.5C 351.196,550.698 343.862,550.365 336.5,550.5C 335.127,550.657 333.793,550.49 332.5,550C 331.22,548.034 329.553,546.534 327.5,545.5C 320.667,484.794 336.167,430.794 374,383.5C 379.702,377.63 385.535,371.964 391.5,366.5C 444.314,321.966 504.314,308.299 571.5,325.5 Z"/>
    <path fill="#1a1817" d="M 587.5,367.5 C 638.499,392.19 669.165,432.524 679.5,488.5C 689.167,488.5 698.833,488.5 708.5,488.5C 700.343,489.329 692.01,489.829 683.5,490C 694.977,490.962 706.31,491.795 717.5,492.5C 703.167,492.5 688.833,492.5 674.5,492.5C 666.527,450.247 645.527,416.247 611.5,390.5C 570.988,361.299 526.321,352.799 477.5,365C 449.476,373.503 425.476,388.336 405.5,409.5C 365.826,456.897 355.326,510.231 374,569.5C 380.356,587.224 389.523,603.224 401.5,617.5C 410.544,627.878 420.544,637.211 431.5,645.5C 431.703,647.638 432.703,649.305 434.5,650.5C 434.043,651.298 433.376,651.631 432.5,651.5C 427.851,648.526 423.184,645.526 418.5,642.5C 374.386,603.524 354.719,554.524 359.5,495.5C 369.634,428.5 406.3,383.167 469.5,359.5C 509.794,348.062 549.128,350.728 587.5,367.5 Z"/>
    <path fill="#f3c72d" d="M 481.5,334.5 C 481.108,336.179 480.608,337.846 480,339.5C 479.722,338.584 479.222,337.918 478.5,337.5C 476.932,333.279 475.932,328.945 475.5,324.5C 482.013,325.028 484.013,328.361 481.5,334.5 Z"/>
    <path fill="#dead2c" d="M 526.5,348.5 C 525.167,349.833 523.833,349.833 522.5,348.5C 522.741,340.139 522.408,331.805 521.5,323.5C 521.72,319.647 523.553,318.647 527,320.5C 526.647,329.797 526.481,339.13 526.5,348.5 Z"/>
    <path fill="#dfad31" d="M 500.5,349.5 C 498.393,350.468 496.059,350.802 493.5,350.5C 491.837,342.513 490.17,334.513 488.5,326.5C 488.57,325.228 488.903,324.062 489.5,323C 492.557,322.019 494.557,323.019 495.5,326C 494.913,328.625 494.58,331.292 494.5,334C 494.928,339.207 495.595,344.374 496.5,349.5C 497.833,349.5 499.167,349.5 500.5,349.5 Z"/>
    <path fill="#daab29" d="M 547.5,351.5 C 546.5,350.833 545.5,350.167 544.5,349.5C 544.447,341.135 544.947,332.802 546,324.5C 547.699,323.594 549.533,323.261 551.5,323.5C 549.713,332.678 548.379,342.011 547.5,351.5 Z"/>
    <path fill="#dfb22a" d="M 567.5,356.5 C 565.597,356.204 563.93,355.537 562.5,354.5C 564.41,353.025 565.576,351.025 566,348.5C 568.134,341.964 569.634,335.297 570.5,328.5C 573.532,328.178 575.199,329.511 575.5,332.5C 572.244,340.269 569.577,348.269 567.5,356.5 Z"/>
    <path fill="#dfb12a" d="M 578.5,360.5 C 576.181,360.008 574.181,359.008 572.5,357.5C 573.75,357.423 574.583,356.756 575,355.5C 577.313,348.25 579.313,340.916 581,333.5C 585.333,331.5 587,332.833 586,337.5C 582.587,344.068 579.753,350.901 577.5,358C 577.743,358.902 578.077,359.735 578.5,360.5 Z"/>
    <path fill="#e1b42d" d="M 535.5,349.5 C 532.941,349.802 530.607,349.468 528.5,348.5C 529.833,348.5 531.167,348.5 532.5,348.5C 533.275,343.027 533.942,337.527 534.5,332C 533.727,329.124 533.227,326.291 533,323.5C 534.754,321.75 536.921,321.083 539.5,321.5C 538.493,330.894 537.159,340.227 535.5,349.5 Z"/>
    <path fill="#d4a626" d="M 557.5,353.5 C 556.732,352.737 556.232,351.737 556,350.5C 554.653,352.466 553.153,352.799 551.5,351.5C 552.649,351.209 553.316,350.376 553.5,349C 555.055,341.559 556.222,334.059 557,326.5C 560.42,323.572 562.587,324.405 563.5,329C 559.705,336.681 557.705,344.848 557.5,353.5 Z"/>
    <path fill="#e2b030" d="M 516.5,348.5 C 512.265,349.436 507.931,349.769 503.5,349.5C 502.435,341.183 501.435,332.85 500.5,324.5C 500.57,323.228 500.903,322.062 501.5,321C 504.906,319.76 506.573,320.927 506.5,324.5C 505.597,332.472 505.263,340.472 505.5,348.5C 507.833,348.5 510.167,348.5 512.5,348.5C 512.5,339.167 512.5,329.833 512.5,320.5C 514.167,320.5 515.833,320.5 517.5,320.5C 516.723,329.812 516.39,339.146 516.5,348.5 Z"/>
    <path fill="#d4a633" d="M 481.5,334.5 C 482.752,339.145 483.752,343.978 484.5,349C 484.684,350.376 485.351,351.209 486.5,351.5C 484.95,352.72 483.284,352.72 481.5,351.5C 480.074,346.952 479.074,342.286 478.5,337.5C 479.222,337.918 479.722,338.584 480,339.5C 480.608,337.846 481.108,336.179 481.5,334.5 Z"/>
    <path fill="#ddab2d" d="M 477.5,353.5 C 476.081,354.451 474.415,354.784 472.5,354.5C 470.559,346.573 468.226,338.74 465.5,331C 466.34,327.835 468.173,327.001 471,328.5C 471.213,334.639 472.213,340.639 474,346.5C 474.436,349.398 475.603,351.731 477.5,353.5 Z"/>
    <path fill="#e0b127" d="M 588.5,364.5 C 586.336,364.279 584.67,363.279 583.5,361.5C 587.144,353.902 589.81,345.902 591.5,337.5C 594.931,336.207 597.597,337.207 599.5,340.5C 594.145,347.206 589.812,354.54 586.5,362.5C 587.243,363.182 587.909,363.849 588.5,364.5 Z"/>
    <path fill="#e5b22f" d="M 711.5,482.5 C 713.652,483.077 713.985,484.244 712.5,486C 714.134,486.494 715.801,486.66 717.5,486.5C 715.012,488.388 712.012,489.055 708.5,488.5C 698.833,488.5 689.167,488.5 679.5,488.5C 669.165,432.524 638.499,392.19 587.5,367.5C 589.144,367.286 590.644,367.62 592,368.5C 591.501,367.106 590.667,365.772 589.5,364.5C 591.267,365.256 593.1,365.923 595,366.5C 600.378,360.44 604.044,353.44 606,345.5C 610.46,344.052 612.126,345.719 611,350.5C 606.943,355.558 603.276,360.892 600,366.5C 599.498,369.715 600.998,371.381 604.5,371.5C 609.271,365.63 612.771,358.963 615,351.5C 618.841,350.005 620.174,351.339 619,355.5C 615.415,361.002 612.081,366.669 609,372.5C 608.251,373.635 608.417,374.635 609.5,375.5C 610.748,376.04 611.915,376.707 613,377.5C 617.498,371.664 621.164,365.331 624,358.5C 628.186,357.35 629.852,359.017 629,363.5C 624.109,368.29 619.942,373.623 616.5,379.5C 618.193,381.027 620.027,382.36 622,383.5C 626.742,377.441 631.409,371.441 636,365.5C 637.622,365.954 638.788,366.954 639.5,368.5C 634.783,373.568 630.283,378.901 626,384.5C 625.251,385.635 625.417,386.635 626.5,387.5C 627.869,389.124 629.536,389.624 631.5,389C 636.034,384.801 640.201,380.301 644,375.5C 645.236,376.399 646.07,377.566 646.5,379C 642.05,383.614 637.384,388.114 632.5,392.5C 633.436,393.974 634.77,394.974 636.5,395.5C 641.204,389.795 646.537,384.795 652.5,380.5C 654.724,381.081 655.557,382.414 655,384.5C 649.409,388.086 644.409,392.42 640,397.5C 639.635,400.494 640.969,402.494 644,403.5C 649.045,398.455 654.045,393.455 659,388.5C 660.622,388.954 661.788,389.954 662.5,391.5C 658.482,396.352 653.982,400.685 649,404.5C 648.5,405.5 648,406.5 647.5,407.5C 648.012,410.532 649.678,411.699 652.5,411C 657.667,406.5 662.833,402 668,397.5C 669.236,398.399 670.07,399.566 670.5,401C 665.395,405.429 660.229,409.929 655,414.5C 654.219,415.944 654.386,417.277 655.5,418.5C 662.228,415.263 668.561,411.429 674.5,407C 676.92,406.085 678.253,406.918 678.5,409.5C 672.746,414.222 666.413,418.222 659.5,421.5C 658.501,424.521 659.501,426.854 662.5,428.5C 669.167,424.833 675.833,421.167 682.5,417.5C 683.974,418.436 684.974,419.77 685.5,421.5C 678.717,425.056 671.717,428.389 664.5,431.5C 664.167,431.833 663.833,432.167 663.5,432.5C 664.439,434.053 665.606,435.387 667,436.5C 674.758,434.471 682.092,431.471 689,427.5C 692.007,429.039 692.174,430.872 689.5,433C 682.795,435.402 676.128,437.902 669.5,440.5C 668.592,441.79 668.759,443.123 670,444.5C 678.577,444.159 686.743,441.826 694.5,437.5C 697.093,439.644 697.093,441.811 694.5,444C 687.395,445.52 680.395,447.353 673.5,449.5C 673.167,449.833 672.833,450.167 672.5,450.5C 673.747,452.323 674.414,454.323 674.5,456.5C 682.818,454.838 690.818,452.172 698.5,448.5C 700.283,450.023 700.949,452.023 700.5,454.5C 692.423,456.116 684.423,458.116 676.5,460.5C 677.309,462.071 677.643,463.738 677.5,465.5C 679.199,465.66 680.866,465.494 682.5,465C 688.192,462.436 694.026,460.269 700,458.5C 701.107,458.585 702.107,458.919 703,459.5C 703.494,461.134 703.66,462.801 703.5,464.5C 699.818,464.335 696.152,464.501 692.5,465C 688.49,466.34 684.49,467.673 680.5,469C 679.862,470.707 679.862,472.54 680.5,474.5C 689.353,473.786 698.02,472.12 706.5,469.5C 706.5,471.167 706.5,472.833 706.5,474.5C 699.25,476.303 691.917,477.803 684.5,479C 682.808,480.401 682.141,482.234 682.5,484.5C 691.537,484.037 700.537,484.037 709.5,484.5C 710.713,484.253 711.38,483.586 711.5,482.5 Z"/>
    <path fill="#e5b632" d="M 467.5,356.5 C 464.693,359.044 465.36,360.044 469.5,359.5C 406.3,383.167 369.634,428.5 359.5,495.5C 357.917,493.492 356.917,491.159 356.5,488.5C 348.486,488.432 340.486,488.099 332.5,487.5C 332.5,485.833 332.5,484.167 332.5,482.5C 340.845,483.406 349.178,484.406 357.5,485.5C 357.5,483.5 357.5,481.5 357.5,479.5C 350.507,478.068 343.507,476.568 336.5,475C 334.816,472.214 335.483,470.38 338.5,469.5C 345.28,472.316 352.28,474.316 359.5,475.5C 359.993,473.194 360.326,470.861 360.5,468.5C 353.784,467.651 347.117,466.484 340.5,465C 337.965,464.072 336.965,462.238 337.5,459.5C 339.857,459.337 342.19,459.503 344.5,460C 350.219,462.763 356.219,464.596 362.5,465.5C 362.833,463.5 363.167,461.5 363.5,459.5C 356.145,458.296 348.811,456.962 341.5,455.5C 341.5,453.833 341.5,452.167 341.5,450.5C 349.117,451.982 356.617,453.982 364,456.5C 366.034,455.056 366.868,453.056 366.5,450.5C 359.092,448.815 351.759,446.815 344.5,444.5C 342.822,441.526 343.655,439.859 347,439.5C 352.432,441.798 357.932,443.964 363.5,446C 368.045,447.269 370.711,445.602 371.5,441C 364.44,438.924 357.44,436.757 350.5,434.5C 350.01,432.052 350.843,430.385 353,429.5C 358.454,431.811 363.954,433.978 369.5,436C 371.259,436.798 372.926,436.631 374.5,435.5C 375.645,434.109 375.645,432.776 374.5,431.5C 368.615,428.724 362.615,426.224 356.5,424C 354.91,421.52 355.41,419.687 358,418.5C 364.406,421.953 370.906,425.287 377.5,428.5C 379.063,427.055 380.396,425.389 381.5,423.5C 375.206,420.843 368.873,418.177 362.5,415.5C 361.239,413.438 361.739,411.772 364,410.5C 368.472,413.653 373.306,416.153 378.5,418C 381.626,420.373 383.959,419.873 385.5,416.5C 380.717,412.268 375.384,408.768 369.5,406C 365.415,401.725 366.415,399.725 372.5,400C 377.457,405.335 383.123,409.335 389.5,412C 390.945,410.29 391.778,408.456 392,406.5C 387.609,402.388 382.776,398.888 377.5,396C 371.871,391.611 372.538,389.278 379.5,389C 384.184,394.515 389.517,399.349 395.5,403.5C 396.5,402.167 397.5,400.833 398.5,399.5C 394.515,395.015 390.349,390.682 386,386.5C 385.364,383.478 386.53,381.978 389.5,382C 393.689,386.688 397.689,391.521 401.5,396.5C 404.113,395.669 405.28,394.002 405,391.5C 401.034,386.533 396.701,381.866 392,377.5C 390.751,373.604 391.917,372.27 395.5,373.5C 399.14,378.973 402.973,384.306 407,389.5C 409.482,390.269 411.315,389.269 412.5,386.5C 408.917,380.663 404.417,375.663 399,371.5C 398.013,367.494 399.513,365.661 403.5,366C 407.008,372.017 411.008,377.684 415.5,383C 418.458,383.015 420.792,381.681 422.5,379C 417.788,373.957 413.455,368.623 409.5,363C 410.672,360.945 412.339,360.278 414.5,361C 418.125,366.415 421.625,371.915 425,377.5C 426.803,376.687 428.303,375.52 429.5,374C 425.662,368.662 422.329,362.996 419.5,357C 420.385,354.843 422.052,354.01 424.5,354.5C 426.413,360.993 429.413,366.993 433.5,372.5C 434.833,371.833 435.833,370.833 436.5,369.5C 433.249,363.996 429.749,358.662 426,353.5C 425.148,349.017 426.814,347.35 431,348.5C 433.112,354.726 435.778,360.726 439,366.5C 440.183,367.731 441.349,367.731 442.5,366.5C 439.423,360.088 436.256,353.754 433,347.5C 432.316,346.216 432.483,345.049 433.5,344C 435.441,343.257 437.274,343.424 439,344.5C 440.874,351.668 443.207,358.668 446,365.5C 448.022,364.214 450.189,363.214 452.5,362.5C 451.087,354.985 447.92,347.985 443,341.5C 442.333,340.167 442.333,338.833 443,337.5C 445.267,336.065 447.267,336.398 449,338.5C 450.802,345.739 453.302,352.739 456.5,359.5C 458.164,360.223 459.831,359.89 461.5,358.5C 460.493,350.488 457.827,342.821 453.5,335.5C 454.898,333.202 456.731,332.536 459,333.5C 460.609,341.85 463.442,349.516 467.5,356.5 Z"/>
    <path fill="#daad32" d="M 390.5,364.5 C 391.338,364.842 391.672,365.508 391.5,366.5C 385.535,371.964 379.702,377.63 374,383.5C 336.167,430.794 320.667,484.794 327.5,545.5C 329.621,566.174 334.955,585.84 343.5,604.5C 352.665,625.318 364.999,643.985 380.5,660.5C 379.508,660.328 378.842,660.662 378.5,661.5C 340.202,621.5 321.869,573.5 323.5,517.5C 322.953,498.875 324.953,480.542 329.5,462.5C 337.367,432.095 351.534,405.095 372,381.5C 377.737,375.259 383.903,369.592 390.5,364.5 Z"/>
    <path fill="#efda4b" d="M 516.5,348.5 C 518.5,348.5 520.5,348.5 522.5,348.5C 523.833,349.833 525.167,349.833 526.5,348.5C 527.167,348.5 527.833,348.5 528.5,348.5C 530.607,349.468 532.941,349.802 535.5,349.5C 538.748,349.762 541.748,349.762 544.5,349.5C 545.5,350.167 546.5,350.833 547.5,351.5C 548.833,351.5 550.167,351.5 551.5,351.5C 553.153,352.799 554.653,352.466 556,350.5C 556.232,351.737 556.732,352.737 557.5,353.5C 559.117,354.038 560.784,354.371 562.5,354.5C 563.93,355.537 565.597,356.204 567.5,356.5C 569.042,357.301 570.708,357.634 572.5,357.5C 574.181,359.008 576.181,360.008 578.5,360.5C 580.216,360.629 581.883,360.962 583.5,361.5C 584.67,363.279 586.336,364.279 588.5,364.5C 588.833,364.5 589.167,364.5 589.5,364.5C 590.667,365.772 591.501,367.106 592,368.5C 590.644,367.62 589.144,367.286 587.5,367.5C 549.128,350.728 509.794,348.062 469.5,359.5C 465.36,360.044 464.693,359.044 467.5,356.5C 469.403,356.204 471.07,355.537 472.5,354.5C 474.415,354.784 476.081,354.451 477.5,353.5C 479.483,353.843 480.817,353.176 481.5,351.5C 483.284,352.72 484.95,352.72 486.5,351.5C 488.806,351.007 491.139,350.674 493.5,350.5C 496.059,350.802 498.393,350.468 500.5,349.5C 501.5,349.5 502.5,349.5 503.5,349.5C 507.931,349.769 512.265,349.436 516.5,348.5 Z"/>
    
    <path fill="#deb341" d="M 611.5,390.5 C 610.209,390.263 609.209,390.596 608.5,391.5C 550.675,353.858 492.342,353.025 433.5,389C 425.333,395.669 417.333,402.502 409.5,409.5C 409.631,408.761 409.464,408.094 409,407.5C 408.184,408.823 407.017,409.489 405.5,409.5C 425.476,388.336 449.476,373.503 477.5,365C 526.321,352.799 570.988,361.299 611.5,390.5 Z"/>
    <path fill="#dfa733" d="M 611.5,390.5 C 645.527,416.247 666.527,450.247 674.5,492.5C 673.732,491.737 673.232,490.737 673,489.5C 672.503,492.146 672.336,494.813 672.5,497.5C 664.424,453.989 643.09,418.656 608.5,391.5C 609.209,390.596 610.209,390.263 611.5,390.5 Z"/>
    <path fill="#d7a932" d="M 575.5,324.5 C 641.627,345.46 685.793,388.793 708,454.5C 710.646,464.75 712.813,475.083 714.5,485.5C 715.791,485.263 716.791,485.596 717.5,486.5C 715.801,486.66 714.134,486.494 712.5,486C 713.985,484.244 713.652,483.077 711.5,482.5C 695.1,403.104 648.434,350.771 571.5,325.5C 573.099,325.768 574.432,325.434 575.5,324.5 Z"/>
    <path fill="#8a6b1c" d="M 717.5,495.5 C 703.304,495.839 689.304,496.839 675.5,498.5C 674.596,497.791 674.263,496.791 674.5,495.5C 688.833,495.5 703.167,495.5 717.5,495.5 Z"/>
    <path fill="#7a5c20" d="M 355.5,499.5 C 355.5,500.833 355.5,502.167 355.5,503.5C 350.833,503.5 346.167,503.5 341.5,503.5C 345.634,502.515 349.968,502.182 354.5,502.5C 354.263,501.209 354.596,500.209 355.5,499.5 Z"/>
    <path fill="#e1aa2b" d="M 674.5,492.5 C 688.833,492.5 703.167,492.5 717.5,492.5C 717.5,493.5 717.5,494.5 717.5,495.5C 703.167,495.5 688.833,495.5 674.5,495.5C 674.263,496.791 674.596,497.791 675.5,498.5C 675.5,499.5 675.5,500.5 675.5,501.5C 689.834,501.197 704.168,500.864 718.5,500.5C 718.5,501.833 718.5,503.167 718.5,504.5C 704.5,504.5 690.5,504.5 676.5,504.5C 676.5,506.167 676.5,507.833 676.5,509.5C 690.5,509.5 704.5,509.5 718.5,509.5C 718.5,510.5 718.5,511.5 718.5,512.5C 704.151,512.833 689.818,512.499 675.5,511.5C 675.058,510.261 674.391,509.261 673.5,508.5C 673.276,504.821 672.942,501.154 672.5,497.5C 672.336,494.813 672.503,492.146 673,489.5C 673.232,490.737 673.732,491.737 674.5,492.5 Z"/>
    <path fill="#765b23" d="M 695.5,518.5 C 703.316,517.508 711.316,517.174 719.5,517.5C 719.768,519.099 719.434,520.432 718.5,521.5C 718.5,520.5 718.5,519.5 718.5,518.5C 710.833,518.5 703.167,518.5 695.5,518.5 Z"/>
    <path fill="#e9ba39" d="M 330.5,520.5 C 336.84,520.849 343.173,521.349 349.5,522C 350.973,522.71 351.64,523.876 351.5,525.5C 346.5,525.5 341.5,525.5 336.5,525.5C 334.473,525.662 332.473,525.495 330.5,525C 329.199,523.384 329.199,521.884 330.5,520.5 Z"/>
    <path fill="#4b3a17" d="M 691.5,526.5 C 700.833,525.167 710.167,525.167 719.5,526.5C 719.737,527.791 719.404,528.791 718.5,529.5C 718.5,528.5 718.5,527.5 718.5,526.5C 709.5,526.5 700.5,526.5 691.5,526.5 Z"/>
    <path fill="#e4b134" d="M 356.5,488.5 C 356.917,491.159 357.917,493.492 359.5,495.5C 354.719,554.524 374.386,603.524 418.5,642.5C 418.833,643.833 419.167,645.167 419.5,646.5C 399.139,630.142 382.805,610.476 370.5,587.5C 366.245,578.07 362.578,568.403 359.5,558.5C 357.49,561.017 354.823,562.517 351.5,563C 345.558,564.406 339.558,564.739 333.5,564C 332.62,562.644 332.286,561.144 332.5,559.5C 340.906,559.638 349.24,558.971 357.5,557.5C 359.176,556.817 359.843,555.483 359.5,553.5C 355.958,553.187 352.625,553.521 349.5,554.5C 343.516,555.297 337.516,555.963 331.5,556.5C 331.058,552.616 332.725,550.616 336.5,550.5C 343.862,550.365 351.196,550.698 358.5,551.5C 358.148,548.572 357.482,545.738 356.5,543C 354.5,542.333 352.5,542.333 350.5,543C 344.678,547.355 338.345,548.355 331.5,546C 329.473,544.604 329.14,542.938 330.5,541C 334.062,539.739 337.729,538.906 341.5,538.5C 342.239,538.369 342.906,538.536 343.5,539C 341.754,539.471 340.087,540.138 338.5,541C 339.5,541.167 340.5,541.333 341.5,541.5C 346.408,540.173 351.408,539.173 356.5,538.5C 355.558,531.203 354.725,523.87 354,516.5C 350.606,517.456 347.106,517.789 343.5,517.5C 339.167,517.5 334.833,517.5 330.5,517.5C 330.5,516.167 330.5,514.833 330.5,513.5C 338.5,513.5 346.5,513.5 354.5,513.5C 354.5,511.5 354.5,509.5 354.5,507.5C 350.303,507.739 346.303,508.739 342.5,510.5C 337.928,509.146 333.595,507.312 329.5,505C 328.62,503.644 328.286,502.144 328.5,500.5C 330.527,500.338 332.527,500.505 334.5,501C 336.155,504.162 338.488,504.995 341.5,503.5C 346.167,503.5 350.833,503.5 355.5,503.5C 355.5,502.167 355.5,500.833 355.5,499.5C 347.63,498.188 339.63,496.855 331.5,495.5C 331.5,493.833 331.5,492.167 331.5,490.5C 338.157,491.83 344.824,493.164 351.5,494.5C 355.908,494.923 357.575,492.923 356.5,488.5 Z"/>
    <path fill="#31281a" d="M 341.5,538.5 C 340.5,537.833 339.5,537.167 338.5,536.5C 343.552,536.55 348.552,536.05 353.5,535C 353.957,534.586 354.291,534.086 354.5,533.5C 346.494,532.499 338.494,531.499 330.5,530.5C 330.365,532.554 331.032,534.221 332.5,535.5C 330.876,535.64 329.71,534.973 329,533.5C 328.303,528.593 330.303,527.26 335,529.5C 336.797,528.734 338.631,528.068 340.5,527.5C 344.446,529.269 348.446,529.936 352.5,529.5C 353.386,528.675 353.719,527.675 353.5,526.5C 347.642,526.822 341.975,526.489 336.5,525.5C 341.5,525.5 346.5,525.5 351.5,525.5C 351.64,523.876 350.973,522.71 349.5,522C 343.173,521.349 336.84,520.849 330.5,520.5C 338.115,519.064 345.781,519.397 353.5,521.5C 353.5,520.5 353.5,519.5 353.5,518.5C 349.958,518.813 346.625,518.479 343.5,517.5C 347.106,517.789 350.606,517.456 354,516.5C 354.725,523.87 355.558,531.203 356.5,538.5C 351.408,539.173 346.408,540.173 341.5,541.5C 340.5,541.333 339.5,541.167 338.5,541C 340.087,540.138 341.754,539.471 343.5,539C 342.906,538.536 342.239,538.369 341.5,538.5 Z"/>
    <path fill="#e4af33" d="M 338.5,536.5 C 336.435,536.483 334.435,536.15 332.5,535.5C 331.032,534.221 330.365,532.554 330.5,530.5C 338.494,531.499 346.494,532.499 354.5,533.5C 354.291,534.086 353.957,534.586 353.5,535C 348.552,536.05 343.552,536.55 338.5,536.5 Z"/>
    <path opacity="0.5" fill="#1d2023" d="M 838.5,544.5 C 839.525,544.897 839.692,545.563 839,546.5C 838.536,545.906 838.369,545.239 838.5,544.5 Z"/>
    <path opacity="0.5" fill="#1d2023" d="M 838.5,547.5 C 839.833,548.167 839.833,548.167 838.5,547.5 Z"/>
    <path fill="#e3b334" d="M 673.5,508.5 C 674.391,509.261 675.058,510.261 675.5,511.5C 689.818,512.499 704.151,512.833 718.5,512.5C 704.677,513.496 690.677,513.829 676.5,513.5C 676.5,515.167 676.5,516.833 676.5,518.5C 682.833,518.5 689.167,518.5 695.5,518.5C 703.167,518.5 710.833,518.5 718.5,518.5C 718.5,519.5 718.5,520.5 718.5,521.5C 704.833,521.5 691.167,521.5 677.5,521.5C 677.5,523.167 677.5,524.833 677.5,526.5C 682.167,526.5 686.833,526.5 691.5,526.5C 700.5,526.5 709.5,526.5 718.5,526.5C 718.5,527.5 718.5,528.5 718.5,529.5C 704.5,529.5 690.5,529.5 676.5,529.5C 676.5,531.5 676.5,533.5 676.5,535.5C 690.5,535.5 704.5,535.5 718.5,535.5C 718.5,536.5 718.5,537.5 718.5,538.5C 704.343,539.496 690.01,539.829 675.5,539.5C 675.5,541.167 675.5,542.833 675.5,544.5C 689.833,544.5 704.167,544.5 718.5,544.5C 718.5,545.5 718.5,546.5 718.5,547.5C 703.462,546.85 688.795,547.517 674.5,549.5C 672.836,550.949 672.002,552.949 672,555.5C 671.503,553.19 671.337,550.857 671.5,548.5C 673.177,535.23 673.844,521.896 673.5,508.5 Z"/>
    <path opacity="0.5" fill="#1d2023" d="M 838.5,549.5 C 839.525,549.897 839.692,550.563 839,551.5C 838.536,550.906 838.369,550.239 838.5,549.5 Z"/>
    <path fill="#dea128" d="M 409.5,409.5 C 363.291,464.802 355.791,525.135 387,590.5C 392.013,599.205 397.513,607.538 403.5,615.5C 403.5,616.833 402.833,617.5 401.5,617.5C 389.523,603.224 380.356,587.224 374,569.5C 355.326,510.231 365.826,456.897 405.5,409.5C 407.017,409.489 408.184,408.823 409,407.5C 409.464,408.094 409.631,408.761 409.5,409.5 Z"/>
    <path fill="#79601d" d="M 349.5,554.5 C 352.625,553.521 355.958,553.187 359.5,553.5C 359.843,555.483 359.176,556.817 357.5,557.5C 357.804,556.85 358.137,556.183 358.5,555.5C 355.572,554.516 352.572,554.183 349.5,554.5 Z"/>
    <path fill="#dba12d" d="M 597.5,389.5 C 633.641,413.059 656.474,446.059 666,488.5C 675.621,540.276 663.287,585.943 629,625.5C 580.396,672.25 524.23,684.417 460.5,662C 450.156,657.5 440.489,652 431.5,645.5C 420.544,637.211 410.544,627.878 401.5,617.5C 402.833,617.5 403.5,616.833 403.5,615.5C 450.124,667.066 506.457,681.566 572.5,659C 625.395,636.417 656.228,596.584 665,539.5C 668.651,507.51 662.818,477.51 647.5,449.5C 640.186,434.181 630.186,420.848 617.5,409.5C 610.534,403.022 603.201,397.022 595.5,391.5C 596.833,391.5 597.5,390.833 597.5,389.5 Z"/>
    <path fill="#212017" d="M 327.5,545.5 C 329.553,546.534 331.22,548.034 332.5,550C 333.793,550.49 335.127,550.657 336.5,550.5C 332.725,550.616 331.058,552.616 331.5,556.5C 337.516,555.963 343.516,555.297 349.5,554.5C 352.572,554.183 355.572,554.516 358.5,555.5C 358.137,556.183 357.804,556.85 357.5,557.5C 349.24,558.971 340.906,559.638 332.5,559.5C 332.286,561.144 332.62,562.644 333.5,564C 339.558,564.739 345.558,564.406 351.5,563C 354.823,562.517 357.49,561.017 359.5,558.5C 362.578,568.403 366.245,578.07 370.5,587.5C 367.654,589.634 364.654,589.967 361.5,588.5C 363.833,588.5 366.167,588.5 368.5,588.5C 368.67,587.178 368.337,586.011 367.5,585C 363.577,584.207 359.744,584.374 356,585.5C 356.227,587.238 357.394,588.238 359.5,588.5C 361.023,590.586 360.69,592.252 358.5,593.5C 358.714,595.144 358.38,596.644 357.5,598C 359.928,598.747 361.594,597.914 362.5,595.5C 364.907,596.794 367.074,598.461 369,600.5C 369.617,601.449 369.451,602.282 368.5,603C 364.101,602.627 359.768,601.961 355.5,601C 353.507,602.999 351.173,604.499 348.5,605.5C 347.571,606.689 347.238,608.022 347.5,609.5C 345.926,607.898 345.259,605.898 345.5,603.5C 347.199,603.66 348.866,603.494 350.5,603C 348.728,601.513 346.728,601.18 344.5,602C 343.748,602.671 343.414,603.504 343.5,604.5C 334.955,585.84 329.621,566.174 327.5,545.5 Z"/>
    <path fill="#efbb2e" d="M 336.5,568.5 C 344.805,569.332 353.138,569.665 361.5,569.5C 361.5,570.5 361.5,571.5 361.5,572.5C 353.167,573.833 344.833,573.833 336.5,572.5C 336.5,571.167 336.5,569.833 336.5,568.5 Z"/>
    <path fill="#edb932" d="M 356.5,581.5 C 352.833,581.5 349.167,581.5 345.5,581.5C 345.5,582.5 345.5,583.5 345.5,584.5C 346.791,584.263 347.791,584.596 348.5,585.5C 341.212,587.383 337.546,584.716 337.5,577.5C 346.531,577.474 355.531,577.307 364.5,577C 365.337,578.011 365.67,579.178 365.5,580.5C 362.455,580.508 359.455,580.841 356.5,581.5 Z"/>
    <path fill="#aa8f38" d="M 356.5,581.5 C 353.359,582.321 350.025,582.821 346.5,583C 348.167,583.333 349.833,583.667 351.5,584C 350.473,584.513 349.473,585.013 348.5,585.5C 347.791,584.596 346.791,584.263 345.5,584.5C 345.5,583.5 345.5,582.5 345.5,581.5C 349.167,581.5 352.833,581.5 356.5,581.5 Z"/>
    <path fill="#eab836" d="M 361.5,588.5 C 360.833,588.5 360.167,588.5 359.5,588.5C 357.394,588.238 356.227,587.238 356,585.5C 359.744,584.374 363.577,584.207 367.5,585C 368.337,586.011 368.67,587.178 368.5,588.5C 366.167,588.5 363.833,588.5 361.5,588.5 Z"/>
    <path fill="#eeb523" d="M 358.5,593.5 C 356.139,598.989 351.806,601.322 345.5,600.5C 345.33,599.178 345.663,598.011 346.5,597C 348.788,596.178 351.122,595.511 353.5,595C 349.843,595.108 346.177,595.108 342.5,595C 340.968,594.3 339.968,593.134 339.5,591.5C 345.798,590.504 352.132,590.17 358.5,590.5C 358.5,591.5 358.5,592.5 358.5,593.5 Z"/>
    <path fill="#e6b12b" d="M 716.5,553.5 C 716.229,555.43 715.229,556.764 713.5,557.5C 712.391,557.443 711.391,557.11 710.5,556.5C 701.494,556.334 692.494,556.5 683.5,557C 682.663,558.011 682.33,559.178 682.5,560.5C 690.505,560.731 698.505,561.065 706.5,561.5C 706.714,563.144 706.38,564.644 705.5,566C 699.248,565.093 692.915,564.26 686.5,563.5C 682.49,562.843 680.824,564.51 681.5,568.5C 688.928,568.849 696.262,569.849 703.5,571.5C 704.075,574.571 702.909,576.571 700,577.5C 693.794,575.265 687.628,572.932 681.5,570.5C 680.308,572.742 679.308,575.075 678.5,577.5C 685.395,579.641 692.395,581.307 699.5,582.5C 699.5,584.167 699.5,585.833 699.5,587.5C 692.339,586.667 685.505,584.667 679,581.5C 676.526,583.094 675.026,585.427 674.5,588.5C 680.872,590.177 687.206,592.01 693.5,594C 695.107,595.049 695.773,596.549 695.5,598.5C 687.592,596.42 679.592,594.754 671.5,593.5C 670.862,595.46 670.862,597.293 671.5,599C 678.009,600.67 684.342,602.836 690.5,605.5C 691.052,607.003 691.052,608.669 690.5,610.5C 689.127,610.657 687.793,610.49 686.5,610C 681.282,607.224 675.949,604.724 670.5,602.5C 668.431,602.785 667.098,603.952 666.5,606C 671.675,610.749 677.341,614.749 683.5,618C 684.813,621.692 683.48,623.359 679.5,623C 674.227,618.402 669.727,613.235 666,607.5C 663.466,609.569 662.299,612.235 662.5,615.5C 669.675,617.582 675.675,621.416 680.5,627C 679.941,629.188 678.607,629.854 676.5,629C 670.833,625.167 665.167,621.333 659.5,617.5C 657.789,619.24 656.956,621.24 657,623.5C 662.263,628.765 668.096,633.265 674.5,637C 673.244,639.628 671.244,640.628 668.5,640C 663.799,635.634 659.466,630.967 655.5,626C 654.004,625.493 652.837,625.993 652,627.5C 650.711,629.055 650.044,630.721 650,632.5C 655.079,636.29 660.245,639.956 665.5,643.5C 667.23,647.606 665.897,649.106 661.5,648C 656.968,643.133 652.134,638.633 647,634.5C 644.124,636.463 643.791,638.796 646,641.5C 650.938,646.086 655.271,650.752 659,655.5C 657.445,657.515 655.611,657.848 653.5,656.5C 649.808,651.975 646.308,647.308 643,642.5C 641.817,641.269 640.651,641.269 639.5,642.5C 639.023,643.478 638.357,644.311 637.5,645C 640.762,651.533 644.762,657.533 649.5,663C 648.615,666.178 646.782,667.011 644,665.5C 640.727,659.288 637.727,652.954 635,646.5C 632.963,648.706 630.797,650.706 628.5,652.5C 628.068,651.29 627.401,650.29 626.5,649.5C 655.185,624.148 673.018,592.482 680,554.5C 692.086,553.512 704.253,553.178 716.5,553.5 Z"/>
    <path fill="#1e1b19" d="M 347.5,609.5 C 351.867,607.734 356.367,606.401 361,605.5C 364.294,605.592 367.461,606.259 370.5,607.5C 365.945,610.945 360.945,613.612 355.5,615.5C 353.906,618.145 354.573,619.812 357.5,620.5C 363.393,618.303 368.56,614.969 373,610.5C 375.315,612.535 376.148,614.868 375.5,617.5C 370.294,620.603 364.96,623.436 359.5,626C 360.56,627.298 361.726,628.465 363,629.5C 368.522,625.823 374.355,622.823 380.5,620.5C 380.649,621.552 380.483,622.552 380,623.5C 375.667,627.167 371.333,630.833 367,634.5C 366.146,636.607 366.812,637.941 369,638.5C 374.609,635.226 379.276,630.892 383,625.5C 384.878,627.043 386.378,628.876 387.5,631C 384.295,636.54 379.628,640.207 373.5,642C 372.724,644.313 373.557,646.146 376,647.5C 381.442,644.393 385.942,640.226 389.5,635C 391.237,634.388 392.237,635.054 392.5,637C 388.921,639.986 386.754,643.82 386,648.5C 383.537,650.759 382.203,653.426 382,656.5C 389.411,656.492 394.911,652.992 398.5,646C 395.18,646.265 392.513,647.931 390.5,651C 389.833,651.667 389.167,651.667 388.5,651C 391.033,647.472 393.866,644.306 397,641.5C 398.995,643.329 400.828,645.329 402.5,647.5C 399.862,653.305 395.695,657.638 390,660.5C 389.389,664.088 390.889,665.254 394.5,664C 399.086,659.92 403.086,655.42 406.5,650.5C 409.257,652.088 410.09,654.421 409,657.5C 406.787,662.218 403.954,666.551 400.5,670.5C 402.485,672.933 404.652,672.933 407,670.5C 409.426,665.979 411.593,661.312 413.5,656.5C 415.046,657.212 416.046,658.378 416.5,660C 415.034,662.432 413.701,664.932 412.5,667.5C 411.883,667.389 411.383,667.056 411,666.5C 408.303,670.344 407.47,674.344 408.5,678.5C 413.563,678.049 418.063,675.716 422,671.5C 422.635,673.635 422.301,675.635 421,677.5C 418.778,679.385 416.944,681.551 415.5,684C 417.95,687.292 420.45,687.125 423,683.5C 425.072,678.449 427.238,673.449 429.5,668.5C 431.664,669.414 433.664,670.581 435.5,672C 433.391,676.383 430.891,680.549 428,684.5C 427.506,686.134 427.34,687.801 427.5,689.5C 429.288,689.785 430.955,689.452 432.5,688.5C 434.774,684.286 436.774,679.953 438.5,675.5C 439.167,674.167 439.833,674.167 440.5,675.5C 438.085,682.822 434.752,689.489 430.5,695.5C 432.467,695.739 434.301,695.406 436,694.5C 438.196,689.58 440.196,684.58 442,679.5C 442.347,677.82 443.347,676.82 445,676.5C 448.369,677.1 451.203,678.6 453.5,681C 450.873,687.089 447.873,692.922 444.5,698.5C 445.378,700.939 447.045,701.772 449.5,701C 451.658,694.322 454.658,688.156 458.5,682.5C 460.589,682.857 462.589,683.523 464.5,684.5C 462.194,690.446 459.361,696.112 456,701.5C 455.692,705.367 457.359,706.367 461,704.5C 462.333,697.513 465,691.179 469,685.5C 470.92,685.938 472.754,686.605 474.5,687.5C 472.165,693.506 469.832,699.506 467.5,705.5C 468.556,707.749 470.223,708.915 472.5,709C 473.641,702.069 475.308,695.236 477.5,688.5C 480.323,688.025 482.323,689.025 483.5,691.5C 482.142,697.6 480.475,703.6 478.5,709.5C 479.696,712.138 481.696,712.971 484.5,712C 485.456,709.581 485.456,707.081 484.5,704.5C 485.269,700.155 486.102,695.821 487,691.5C 487.671,690.748 488.504,690.414 489.5,690.5C 490.833,690.5 492.167,690.5 493.5,690.5C 493.047,697.411 492.047,704.244 490.5,711C 490.585,712.107 490.919,713.107 491.5,714C 493.134,714.494 494.801,714.66 496.5,714.5C 495.364,706.844 495.364,699.178 496.5,691.5C 497.5,691.5 498.5,691.5 499.5,691.5C 500.609,692.29 501.942,692.79 503.5,693C 502.519,700.413 502.186,707.913 502.5,715.5C 504.144,715.714 505.644,715.38 507,714.5C 507.5,707.174 507.666,699.841 507.5,692.5C 509.167,692.5 510.833,692.5 512.5,692.5C 512.174,701.349 512.507,710.016 513.5,718.5C 511.052,719.473 508.385,719.806 505.5,719.5C 456.317,715.348 414.65,695.682 380.5,660.5C 364.999,643.985 352.665,625.318 343.5,604.5C 343.414,603.504 343.748,602.671 344.5,602C 346.728,601.18 348.728,601.513 350.5,603C 348.866,603.494 347.199,603.66 345.5,603.5C 345.259,605.898 345.926,607.898 347.5,609.5 Z"/>
    <path fill="#e8b631" d="M 458.5,678.5 C 458.918,679.222 459.584,679.722 460.5,680C 458.065,680.075 457.398,680.908 458.5,682.5C 454.658,688.156 451.658,694.322 449.5,701C 447.045,701.772 445.378,700.939 444.5,698.5C 447.873,692.922 450.873,687.089 453.5,681C 451.203,678.6 448.369,677.1 445,676.5C 443.347,676.82 442.347,677.82 442,679.5C 440.196,684.58 438.196,689.58 436,694.5C 434.301,695.406 432.467,695.739 430.5,695.5C 434.752,689.489 438.085,682.822 440.5,675.5C 439.833,674.167 439.167,674.167 438.5,675.5C 436.774,679.953 434.774,684.286 432.5,688.5C 430.955,689.452 429.288,689.785 427.5,689.5C 427.34,687.801 427.506,686.134 428,684.5C 430.891,680.549 433.391,676.383 435.5,672C 433.664,670.581 431.664,669.414 429.5,668.5C 427.238,673.449 425.072,678.449 423,683.5C 420.45,687.125 417.95,687.292 415.5,684C 416.944,681.551 418.778,679.385 421,677.5C 422.301,675.635 422.635,673.635 422,671.5C 418.063,675.716 413.563,678.049 408.5,678.5C 408.178,676.278 408.845,674.444 410.5,673C 413.982,671.756 416.982,669.756 419.5,667C 420.784,666.316 421.951,666.483 423,667.5C 424.929,665.315 424.429,663.649 421.5,662.5C 418.516,664.984 415.682,667.65 413,670.5C 412.517,669.552 412.351,668.552 412.5,667.5C 413.701,664.932 415.034,662.432 416.5,660C 416.046,658.378 415.046,657.212 413.5,656.5C 411.593,661.312 409.426,665.979 407,670.5C 404.652,672.933 402.485,672.933 400.5,670.5C 403.954,666.551 406.787,662.218 409,657.5C 410.09,654.421 409.257,652.088 406.5,650.5C 403.086,655.42 399.086,659.92 394.5,664C 390.889,665.254 389.389,664.088 390,660.5C 395.695,657.638 399.862,653.305 402.5,647.5C 400.828,645.329 398.995,643.329 397,641.5C 393.866,644.306 391.033,647.472 388.5,651C 389.167,651.667 389.833,651.667 390.5,651C 392.513,647.931 395.18,646.265 398.5,646C 394.911,652.992 389.411,656.492 382,656.5C 382.203,653.426 383.537,650.759 386,648.5C 386.754,643.82 388.921,639.986 392.5,637C 392.237,635.054 391.237,634.388 389.5,635C 385.942,640.226 381.442,644.393 376,647.5C 373.557,646.146 372.724,644.313 373.5,642C 379.628,640.207 384.295,636.54 387.5,631C 386.378,628.876 384.878,627.043 383,625.5C 379.276,630.892 374.609,635.226 369,638.5C 366.812,637.941 366.146,636.607 367,634.5C 371.333,630.833 375.667,627.167 380,623.5C 380.483,622.552 380.649,621.552 380.5,620.5C 374.355,622.823 368.522,625.823 363,629.5C 361.726,628.465 360.56,627.298 359.5,626C 364.96,623.436 370.294,620.603 375.5,617.5C 376.148,614.868 375.315,612.535 373,610.5C 368.56,614.969 363.393,618.303 357.5,620.5C 354.573,619.812 353.906,618.145 355.5,615.5C 360.945,613.612 365.945,610.945 370.5,607.5C 367.461,606.259 364.294,605.592 361,605.5C 356.367,606.401 351.867,607.734 347.5,609.5C 347.238,608.022 347.571,606.689 348.5,605.5C 351.173,604.499 353.507,602.999 355.5,601C 359.768,601.961 364.101,602.627 368.5,603C 369.451,602.282 369.617,601.449 369,600.5C 367.074,598.461 364.907,596.794 362.5,595.5C 362.5,594.5 362.5,593.5 362.5,592.5C 365.785,592.269 368.285,593.603 370,596.5C 389.159,635.135 418.659,662.468 458.5,678.5 Z"/>
    <path fill="#1e1a15" d="M 608.5,391.5 C 643.09,418.656 664.424,453.989 672.5,497.5C 672.942,501.154 673.276,504.821 673.5,508.5C 673.844,521.896 673.177,535.23 671.5,548.5C 654.214,623.282 607.547,666.448 531.5,678C 495.15,681.04 462.15,672.207 432.5,651.5C 433.376,651.631 434.043,651.298 434.5,650.5C 432.703,649.305 431.703,647.638 431.5,645.5C 440.489,652 450.156,657.5 460.5,662C 524.23,684.417 580.396,672.25 629,625.5C 663.287,585.943 675.621,540.276 666,488.5C 656.474,446.059 633.641,413.059 597.5,389.5C 551.713,362.283 504.379,359.45 455.5,381C 438.659,389.345 423.992,400.511 411.5,414.5C 382.358,447.407 369.691,485.741 373.5,529.5C 373.5,531.5 373.5,533.5 373.5,535.5C 386.283,606.449 427.95,649.283 498.5,664C 543.848,668.811 583.515,656.144 617.5,626C 661.447,579.198 672.614,525.365 651,464.5C 648.776,459.303 646.276,454.303 643.5,449.5C 645.074,449.937 646.241,450.937 647,452.5C 647.483,451.552 647.649,450.552 647.5,449.5C 662.818,477.51 668.651,507.51 665,539.5C 656.228,596.584 625.395,636.417 572.5,659C 506.457,681.566 450.124,667.066 403.5,615.5C 397.513,607.538 392.013,599.205 387,590.5C 355.791,525.135 363.291,464.802 409.5,409.5C 417.333,402.502 425.333,395.669 433.5,389C 492.342,353.025 550.675,353.858 608.5,391.5 Z"/>
    <path fill="#f2ba21" d="M 375.5,501.5 C 375.5,510.5 375.5,519.5 375.5,528.5C 375.664,531.187 375.497,533.854 375,536.5C 374.617,535.944 374.117,535.611 373.5,535.5C 373.5,533.5 373.5,531.5 373.5,529.5C 373.168,519.81 373.502,510.144 374.5,500.5C 375.107,500.624 375.44,500.957 375.5,501.5 Z"/>
    <path fill="#d89d29" d="M 411.5,414.5 C 412.791,414.263 413.791,414.596 414.5,415.5C 392.848,440.145 379.848,468.812 375.5,501.5C 375.44,500.957 375.107,500.624 374.5,500.5C 373.502,510.144 373.168,519.81 373.5,529.5C 369.691,485.741 382.358,447.407 411.5,414.5 Z"/>
    <path fill="#d89c28" d="M 582.5,390.5 C 594.015,395.757 604.349,402.757 613.5,411.5C 625.344,422.681 635.344,435.347 643.5,449.5C 646.276,454.303 648.776,459.303 651,464.5C 672.614,525.365 661.447,579.198 617.5,626C 583.515,656.144 543.848,668.811 498.5,664C 427.95,649.283 386.283,606.449 373.5,535.5C 374.117,535.611 374.617,535.944 375,536.5C 375.497,533.854 375.664,531.187 375.5,528.5C 382.371,581.42 409.037,620.92 455.5,647C 517.898,673.963 573.398,663.796 622,616.5C 659.014,572.085 668.014,522.419 649,467.5C 637.523,439.867 619.356,417.867 594.5,401.5C 590.173,398.001 585.506,395.001 580.5,392.5C 579.34,390.797 580.007,390.131 582.5,390.5 Z"/>
    <path fill="#1c1a17" d="M 595.5,391.5 C 603.201,397.022 610.534,403.022 617.5,409.5C 615.244,407.903 613.91,408.569 613.5,411.5C 604.349,402.757 594.015,395.757 582.5,390.5C 528.474,364.467 477.807,369.967 430.5,407C 422.928,414.068 415.928,421.568 409.5,429.5C 394.479,448.56 385.146,470.226 381.5,494.5C 379.995,500.52 379.329,506.687 379.5,513C 379.74,520.176 380.074,527.342 380.5,534.5C 389.788,587.946 419.121,625.779 468.5,648C 470.436,648.813 472.436,649.313 474.5,649.5C 520.825,664.501 563.491,657.335 602.5,628C 641.006,593.84 657.506,551.007 652,499.5C 645.171,461.805 626.671,431.472 596.5,408.5C 595.306,407.728 594.306,406.728 593.5,405.5C 592.046,403.737 592.38,402.403 594.5,401.5C 619.356,417.867 637.523,439.867 649,467.5C 668.014,522.419 659.014,572.085 622,616.5C 573.398,663.796 517.898,673.963 455.5,647C 409.037,620.92 382.371,581.42 375.5,528.5C 375.5,519.5 375.5,510.5 375.5,501.5C 379.848,468.812 392.848,440.145 414.5,415.5C 458.615,371.917 510.282,359.75 569.5,379C 578.341,382.922 587.008,387.088 595.5,391.5 Z"/>
    <path fill="#1f1b16" d="M 580.5,392.5 C 585.506,395.001 590.173,398.001 594.5,401.5C 592.38,402.403 592.046,403.737 593.5,405.5C 549.609,377.806 504.275,375.306 457.5,398C 447.463,403.545 438.463,410.379 430.5,418.5C 398.393,449.639 384.56,487.639 389,532.5C 397.368,584.852 425.868,621.352 474.5,642C 493.618,649.259 513.284,651.425 533.5,648.5C 593.16,638.678 630.327,604.345 645,545.5C 645.684,540.178 646.184,534.844 646.5,529.5C 648.231,476.132 626.564,434.965 581.5,406C 523.864,376.441 472.364,384.608 427,430.5C 407.922,452.213 397.089,477.546 394.5,506.5C 392.733,524.773 395.067,542.439 401.5,559.5C 400.542,559.047 399.708,558.381 399,557.5C 398.601,557.728 398.435,558.062 398.5,558.5C 382.914,510.259 391.414,466.592 424,427.5C 426.703,424.629 429.536,421.962 432.5,419.5C 479.241,379.658 529.907,374.158 584.5,403C 587.529,405.176 590.529,407.343 593.5,409.5C 633.637,440.118 652.471,480.784 650,531.5C 642.573,591.903 610.073,631.403 552.5,650C 527.332,656.444 502.332,655.944 477.5,648.5C 423.813,627.496 392.146,588.496 382.5,531.5C 382.5,521.5 382.5,511.5 382.5,501.5C 385.995,476.69 394.995,454.023 409.5,433.5C 456.303,377.884 513.303,364.217 580.5,392.5 Z"/>
    <path fill="#d9a02d" d="M 430.5,418.5 C 431.492,418.328 432.158,418.662 432.5,419.5C 429.536,421.962 426.703,424.629 424,427.5C 391.414,466.592 382.914,510.259 398.5,558.5C 407.263,584.926 422.93,606.26 445.5,622.5C 463.65,636.558 484.316,644.558 507.5,646.5C 516.167,647.167 524.833,647.833 533.5,648.5C 513.284,651.425 493.618,649.259 474.5,642C 425.868,621.352 397.368,584.852 389,532.5C 384.56,487.639 398.393,449.639 430.5,418.5 Z"/>
    <path fill="#251e17" d="M 633.5,570.5 C 620.391,601.443 598.391,623.61 567.5,637C 548.271,645.038 528.271,648.205 507.5,646.5C 484.316,644.558 463.65,636.558 445.5,622.5C 446.492,622.672 447.158,622.338 447.5,621.5C 459.393,629.113 472.06,635.113 485.5,639.5C 490.106,640.755 494.773,641.921 499.5,643C 513.188,643.74 526.855,643.573 540.5,642.5C 572.608,635.875 598.441,619.541 618,593.5C 618.667,592.5 618.667,591.5 618,590.5C 617.329,591.252 616.496,591.586 615.5,591.5C 616.174,589.976 617.174,588.642 618.5,587.5C 617.609,586.41 616.609,586.41 615.5,587.5C 614.571,586.311 614.238,584.978 614.5,583.5C 615.222,584.551 616.222,585.218 617.5,585.5C 618.5,585.5 619.5,585.5 620.5,585.5C 621.778,585.218 622.778,584.551 623.5,583.5C 623.369,584.239 623.536,584.906 624,585.5C 624.822,583.212 625.489,580.878 626,578.5C 629.225,576.403 631.225,573.403 632,569.5C 632.383,570.056 632.883,570.389 633.5,570.5 Z"/>
    <path fill="#d2922a" d="M 382.5,531.5 C 392.146,588.496 423.813,627.496 477.5,648.5C 476.791,649.404 475.791,649.737 474.5,649.5C 472.436,649.313 470.436,648.813 468.5,648C 419.121,625.779 389.788,587.946 380.5,534.5C 381.222,534.918 381.722,535.584 382,536.5C 382.494,534.866 382.66,533.199 382.5,531.5 Z"/>
    <path fill="#d5a82e" d="M 646.5,529.5 C 646.184,534.844 645.684,540.178 645,545.5C 630.327,604.345 593.16,638.678 533.5,648.5C 524.833,647.833 516.167,647.167 507.5,646.5C 528.271,648.205 548.271,645.038 567.5,637C 598.391,623.61 620.391,601.443 633.5,570.5C 639.313,558.257 642.813,545.257 644,531.5C 644.5,524.174 644.666,516.841 644.5,509.5C 644.393,507.621 644.893,507.288 646,508.5C 646.5,515.492 646.666,522.492 646.5,529.5 Z"/>
    <path fill="#161718" d="M 401.5,559.5 C 411.008,584.529 426.342,605.196 447.5,621.5C 447.158,622.338 446.492,622.672 445.5,622.5C 422.93,606.26 407.263,584.926 398.5,558.5C 398.435,558.062 398.601,557.728 399,557.5C 399.708,558.381 400.542,559.047 401.5,559.5 Z"/>
    <path fill="#ce9a29" d="M 593.5,409.5 C 594.209,408.596 595.209,408.263 596.5,408.5C 626.671,431.472 645.171,461.805 652,499.5C 657.506,551.007 641.006,593.84 602.5,628C 563.491,657.335 520.825,664.501 474.5,649.5C 475.791,649.737 476.791,649.404 477.5,648.5C 502.332,655.944 527.332,656.444 552.5,650C 610.073,631.403 642.573,591.903 650,531.5C 652.471,480.784 633.637,440.118 593.5,409.5 Z"/>
    <path fill="#dca832" d="M 396.5,505.5 C 395.201,563.963 420.534,606.129 472.5,632C 478.713,633.901 484.713,636.068 490.5,638.5C 488.585,638.216 486.919,638.549 485.5,639.5C 472.06,635.113 459.393,629.113 447.5,621.5C 426.342,605.196 411.008,584.529 401.5,559.5C 395.067,542.439 392.733,524.773 394.5,506.5C 395.302,505.048 395.802,503.382 396,501.5C 396.49,502.793 396.657,504.127 396.5,505.5 Z"/>
    <path fill="#dcb132" d="M 381.5,494.5 C 382.468,496.607 382.802,498.941 382.5,501.5C 382.5,511.5 382.5,521.5 382.5,531.5C 382.66,533.199 382.494,534.866 382,536.5C 381.722,535.584 381.222,534.918 380.5,534.5C 380.074,527.342 379.74,520.176 379.5,513C 379.329,506.687 379.995,500.52 381.5,494.5 Z"/>
    <path fill="#d2952b" d="M 409.5,429.5 C 408.646,431.035 408.646,432.368 409.5,433.5C 394.995,454.023 385.995,476.69 382.5,501.5C 382.802,498.941 382.468,496.607 381.5,494.5C 385.146,470.226 394.479,448.56 409.5,429.5 Z"/>
    <path fill="#1b1a20" d="M 617.5,409.5 C 630.186,420.848 640.186,434.181 647.5,449.5C 647.649,450.552 647.483,451.552 647,452.5C 646.241,450.937 645.074,449.937 643.5,449.5C 635.344,435.347 625.344,422.681 613.5,411.5C 613.91,408.569 615.244,407.903 617.5,409.5 Z"/>
    <path fill="#d39f34" d="M 646.5,529.5 C 646.666,522.492 646.5,515.492 646,508.5C 644.893,507.288 644.393,507.621 644.5,509.5C 635.241,447.069 599.907,408.236 538.5,393C 492.014,387.501 453.848,402.668 424,438.5C 408.862,458.422 399.695,480.755 396.5,505.5C 396.657,504.127 396.49,502.793 396,501.5C 395.802,503.382 395.302,505.048 394.5,506.5C 397.089,477.546 407.922,452.213 427,430.5C 472.364,384.608 523.864,376.441 581.5,406C 626.564,434.965 648.231,476.132 646.5,529.5 Z"/>
    <path fill="#1d1e22" d="M 644.5,509.5 C 644.666,516.841 644.5,524.174 644,531.5C 642.813,545.257 639.313,558.257 633.5,570.5C 632.883,570.389 632.383,570.056 632,569.5C 631.225,573.403 629.225,576.403 626,578.5C 625.489,580.878 624.822,583.212 624,585.5C 623.536,584.906 623.369,584.239 623.5,583.5C 623.975,580.918 623.308,578.918 621.5,577.5C 620.036,578.405 618.702,578.405 617.5,577.5C 615.669,578.052 614.003,578.052 612.5,577.5C 611.167,580.167 611.167,582.833 612.5,585.5C 613.251,584.624 613.751,583.624 614,582.5C 614.399,582.728 614.565,583.062 614.5,583.5C 614.238,584.978 614.571,586.311 615.5,587.5C 616.609,586.41 617.609,586.41 618.5,587.5C 617.174,588.642 616.174,589.976 615.5,591.5C 595.575,618.077 569.242,634.411 536.5,640.5C 521.101,640.93 505.767,640.263 490.5,638.5C 484.713,636.068 478.713,633.901 472.5,632C 420.534,606.129 395.201,563.963 396.5,505.5C 399.695,480.755 408.862,458.422 424,438.5C 453.848,402.668 492.014,387.501 538.5,393C 599.907,408.236 635.241,447.069 644.5,509.5 Z"/>
    <path fill="#0f0e0f" d="M 452.5,586.5 C 452.5,589.167 452.5,591.833 452.5,594.5C 464.167,594.5 475.833,594.5 487.5,594.5C 487.196,603.221 487.529,611.888 488.5,620.5C 495.142,621.664 501.808,621.831 508.5,621C 509.056,620.617 509.389,620.117 509.5,619.5C 510.493,611.35 510.826,603.017 510.5,594.5C 514.167,594.5 517.833,594.5 521.5,594.5C 521.173,603.682 521.507,612.682 522.5,621.5C 529.012,622.167 535.679,622.833 542.5,623.5C 541.96,624.748 541.293,625.915 540.5,627C 533.117,627.799 525.783,627.632 518.5,626.5C 517.502,617.525 517.168,608.525 517.5,599.5C 515.5,599.5 513.5,599.5 511.5,599.5C 511.432,607.21 511.432,614.71 511.5,622C 510.257,623.154 509.257,624.488 508.5,626C 500.531,627.765 492.531,627.932 484.5,626.5C 483.502,617.525 483.168,608.525 483.5,599.5C 472.162,599.667 460.828,599.5 449.5,599C 447.086,594.747 447.419,590.58 450.5,586.5C 451.257,585.227 451.923,585.227 452.5,586.5 Z"/>
    <path fill="#ebe15b" d="M 508.5,414.5 C 507.526,424.418 507.193,434.418 507.5,444.5C 509.833,444.5 512.167,444.5 514.5,444.5C 512.052,445.473 509.385,445.806 506.5,445.5C 507.138,436.105 506.471,427.105 504.5,418.5C 500.833,418.5 497.167,418.5 493.5,418.5C 493.918,417.778 494.584,417.278 495.5,417C 493.888,416.28 492.388,416.446 491,417.5C 490.5,426.494 490.334,435.494 490.5,444.5C 478.829,444.333 467.162,444.5 455.5,445C 454.277,451.398 453.61,457.898 453.5,464.5C 461.764,464.248 469.931,464.248 478,464.5C 478.667,498.5 478.667,532.5 478,566.5C 473.06,568.878 468.227,571.544 463.5,574.5C 458.516,579.137 455.849,584.804 455.5,591.5C 467.167,591.5 478.833,591.5 490.5,591.5C 490.752,600.873 490.418,610.207 489.5,619.5C 495.5,619.5 501.5,619.5 507.5,619.5C 507.752,610.127 507.418,600.793 506.5,591.5C 512.5,591.5 518.5,591.5 524.5,591.5C 523.629,599.8 523.295,608.133 523.5,616.5C 523.5,617.5 523.5,618.5 523.5,619.5C 529.5,619.5 535.5,619.5 541.5,619.5C 541.666,613.491 541.499,607.491 541,601.5C 540.79,599.942 540.29,598.609 539.5,597.5C 539.223,594.552 539.556,591.719 540.5,589C 543.482,588.502 546.482,588.335 549.5,588.5C 549.082,589.222 548.416,589.722 547.5,590C 554.156,590.048 560.822,589.881 567.5,589.5C 560.05,590.969 552.383,591.803 544.5,592C 546.708,592.191 548.708,592.691 550.5,593.5C 548.5,593.5 546.5,593.5 544.5,593.5C 544.5,602.5 544.5,611.5 544.5,620.5C 537.254,621.464 529.92,621.797 522.5,621.5C 521.507,612.682 521.173,603.682 521.5,594.5C 517.702,593.517 513.702,593.183 509.5,593.5C 509.5,602.167 509.5,610.833 509.5,619.5C 509.389,620.117 509.056,620.617 508.5,621C 501.808,621.831 495.142,621.664 488.5,620.5C 487.529,611.888 487.196,603.221 487.5,594.5C 475.833,594.5 464.167,594.5 452.5,594.5C 452.5,591.833 452.5,589.167 452.5,586.5C 455.716,577.616 461.716,571.282 470.5,567.5C 472.042,566.699 473.708,566.366 475.5,566.5C 475.5,533.167 475.5,499.833 475.5,466.5C 467.826,466.666 460.159,466.5 452.5,466C 451.52,458.921 451.187,451.755 451.5,444.5C 451.5,443.833 451.833,443.5 452.5,443.5C 464.5,443.5 476.5,443.5 488.5,443.5C 488.5,433.833 488.5,424.167 488.5,414.5C 488.611,413.883 488.944,413.383 489.5,413C 492.167,412.833 494.833,412.667 497.5,412.5C 501.469,412.294 505.135,412.961 508.5,414.5 Z"/>
    <path fill="#110f0e" d="M 593.5,582.5 C 594.239,582.369 594.906,582.536 595.5,583C 585.697,591.275 574.363,596.275 561.5,598C 556.192,598.83 550.859,599.33 545.5,599.5C 545.825,606.687 545.491,613.687 544.5,620.5C 544.5,611.5 544.5,602.5 544.5,593.5C 546.5,593.5 548.5,593.5 550.5,593.5C 565.821,593.42 580.154,589.753 593.5,582.5 Z"/>
    <path fill="#ceac43" d="M 621.5,577.5 C 623.308,578.918 623.975,580.918 623.5,583.5C 622.778,584.551 621.778,585.218 620.5,585.5C 620.5,584.5 620.5,583.5 620.5,582.5C 621.451,581.081 621.784,579.415 621.5,577.5 Z"/>
    <path fill="#b89b43" d="M 617.5,577.5 C 617.5,580.167 617.5,582.833 617.5,585.5C 616.222,585.218 615.222,584.551 614.5,583.5C 614.565,583.062 614.399,582.728 614,582.5C 613.751,583.624 613.251,584.624 612.5,585.5C 611.167,582.833 611.167,580.167 612.5,577.5C 614.003,578.052 615.669,578.052 617.5,577.5 Z"/>
    <path fill="#5b4213" d="M 617.5,577.5 C 618.702,578.405 620.036,578.405 621.5,577.5C 621.784,579.415 621.451,581.081 620.5,582.5C 620.5,583.5 620.5,584.5 620.5,585.5C 619.5,585.5 618.5,585.5 617.5,585.5C 617.5,582.833 617.5,580.167 617.5,577.5 Z"/>
    <path fill="#e3b352" d="M 620.5,582.5 C 619.778,582.918 619.278,583.584 619,584.5C 618.202,582.741 618.369,581.074 619.5,579.5C 620.386,580.325 620.719,581.325 620.5,582.5 Z"/>
    <path fill="#fafa93" d="M 552.5,445.5 C 568.627,448.139 580.794,456.472 589,470.5C 593.795,486.119 589.461,498.452 576,507.5C 575.517,508.448 575.351,509.448 575.5,510.5C 579.145,511.652 582.812,512.818 586.5,514C 592.025,518.862 597.525,523.696 603,528.5C 614.309,556.561 605.809,576.061 577.5,587C 573.962,587.535 570.628,588.368 567.5,589.5C 560.822,589.881 554.156,590.048 547.5,590C 548.416,589.722 549.082,589.222 549.5,588.5C 566.568,588.904 581.902,584.071 595.5,574C 606.886,560.21 608.386,545.377 600,529.5C 592.819,520.658 583.652,514.991 572.5,512.5C 571.306,510.484 571.306,508.484 572.5,506.5C 585.892,498.368 590.392,486.701 586,471.5C 579.291,459.476 569.124,451.976 555.5,449C 550.201,448.07 544.867,447.403 539.5,447C 538.556,444.281 538.223,441.448 538.5,438.5C 538.5,431.833 538.5,425.167 538.5,418.5C 534.5,418.5 530.5,418.5 526.5,418.5C 526.666,427.839 526.5,437.173 526,446.5C 519,447.833 512,447.833 505,446.5C 504.5,437.173 504.334,427.839 504.5,418.5C 506.471,427.105 507.138,436.105 506.5,445.5C 509.385,445.806 512.052,445.473 514.5,444.5C 517.833,444.5 521.167,444.5 524.5,444.5C 524.5,434.833 524.5,425.167 524.5,415.5C 530.167,415.5 535.833,415.5 541.5,415.5C 541.547,425.516 541.213,435.516 540.5,445.5C 544.5,445.5 548.5,445.5 552.5,445.5 Z"/>
    <path fill="#0e0e0c" d="M 451.5,444.5 C 451.187,451.755 451.52,458.921 452.5,466C 460.159,466.5 467.826,466.666 475.5,466.5C 475.5,499.833 475.5,533.167 475.5,566.5C 473.708,566.366 472.042,566.699 470.5,567.5C 471.485,535.544 471.819,503.544 471.5,471.5C 463.248,471.816 455.081,471.482 447,470.5C 446.333,463.5 446.333,456.5 447,449.5C 448.976,448.178 450.476,446.512 451.5,444.5 Z"/>
    <path fill="#ebaa30" d="M 538.5,438.5 C 538.223,441.448 538.556,444.281 539.5,447C 544.867,447.403 550.201,448.07 555.5,449C 569.124,451.976 579.291,459.476 586,471.5C 590.392,486.701 585.892,498.368 572.5,506.5C 570.278,506.559 569.278,507.725 569.5,510C 569.615,511.895 570.282,513.562 571.5,515C 577.619,516.546 583.286,519.046 588.5,522.5C 589.624,523.914 590.624,525.414 591.5,527C 593.664,527.37 595.664,528.204 597.5,529.5C 598.711,530.72 598.711,531.887 597.5,533C 600.11,534.384 601.61,536.551 602,539.5C 602.89,546.914 602.557,554.247 601,561.5C 600.185,563.623 599.185,565.623 598,567.5C 597.333,566.833 596.667,566.167 596,565.5C 594.333,567.167 592.667,568.833 591,570.5C 590.907,573.007 590.074,575.174 588.5,577C 582.935,578.923 577.601,581.257 572.5,584C 566.455,584.508 560.455,585.341 554.5,586.5C 552.407,586.514 550.574,585.848 549,584.5C 547.612,585.554 546.112,585.72 544.5,585C 547.544,584.641 547.878,583.974 545.5,583C 548.167,582.333 548.167,581.667 545.5,581C 546.167,580.667 546.833,580.333 547.5,580C 547.399,577.245 547.232,574.079 547,570.5C 548.878,569.947 550.378,568.947 551.5,567.5C 562.97,561.106 567.304,551.439 564.5,538.5C 563.959,534.261 561.959,530.761 558.5,528C 558.759,526.739 559.426,525.739 560.5,525C 559.382,523.926 558.382,522.76 557.5,521.5C 556.284,520.998 555.117,520.665 554,520.5C 553.369,521.872 552.702,523.205 552,524.5C 548.309,522.423 544.476,520.589 540.5,519C 541.01,516.076 541.01,513.41 540.5,511C 541.453,509.045 542.787,507.378 544.5,506C 543.833,505.667 543.167,505.333 542.5,505C 546.735,503.186 551.068,501.52 555.5,500C 556.147,498.391 556.98,496.891 558,495.5C 558.333,496.167 558.667,496.833 559,497.5C 559.5,496.333 560.333,495.5 561.5,495C 560.672,494.085 559.672,493.419 558.5,493C 558.833,492.667 559.167,492.333 559.5,492C 558.712,488.924 558.212,485.758 558,482.5C 557.722,481.584 557.222,480.918 556.5,480.5C 552.606,470.031 544.939,464.698 533.5,464.5C 525.846,463.93 518.179,463.596 510.5,463.5C 515.651,462.673 520.984,462.173 526.5,462C 521.386,461.891 516.386,461.224 511.5,460C 513.301,459.683 513.634,459.016 512.5,458C 513.701,457.097 514.535,455.931 515,454.5C 516.613,455.622 517.78,455.122 518.5,453C 517.833,452.667 517.167,452.333 516.5,452C 519.758,451.788 522.924,451.288 526,450.5C 528.861,450.908 529.028,450.075 526.5,448C 528.211,438.627 528.878,429.127 528.5,419.5C 531.5,419.5 534.5,419.5 537.5,419.5C 537.177,426.022 537.51,432.355 538.5,438.5 Z"/>
    <path fill="#fafd97" d="M 510.5,463.5 C 518.179,463.596 525.846,463.93 533.5,464.5C 531.721,466.344 529.388,467.01 526.5,466.5C 521.167,466.167 515.833,465.833 510.5,465.5C 511.299,478.484 511.633,491.484 511.5,504.5C 521.246,504.114 530.912,503.114 540.5,501.5C 541.791,501.263 542.791,501.596 543.5,502.5C 532.306,506.23 520.973,507.23 509.5,505.5C 509.171,491.323 509.504,477.323 510.5,463.5 Z"/>
    <path fill="#f7ef5c" d="M 526.5,466.5 C 531.642,467.647 536.975,468.48 542.5,469C 552.321,473.142 555.821,480.309 553,490.5C 552.617,489.944 552.117,489.611 551.5,489.5C 552.949,482.669 550.949,477.169 545.5,473C 540.008,470.974 534.341,469.807 528.5,469.5C 523.695,468.513 518.695,468.179 513.5,468.5C 513.5,479.5 513.5,490.5 513.5,501.5C 518.363,501.819 523.03,501.486 527.5,500.5C 535.695,500.623 543.028,498.289 549.5,493.5C 550.645,494.793 550.311,495.959 548.5,497C 545.646,498.397 542.98,499.897 540.5,501.5C 530.912,503.114 521.246,504.114 511.5,504.5C 511.633,491.484 511.299,478.484 510.5,465.5C 515.833,465.833 521.167,466.167 526.5,466.5 Z"/>
    <path fill="#fafb7d" d="M 533.5,464.5 C 544.939,464.698 552.606,470.031 556.5,480.5C 557.805,491.23 553.472,498.563 543.5,502.5C 542.791,501.596 541.791,501.263 540.5,501.5C 542.98,499.897 545.646,498.397 548.5,497C 550.311,495.959 550.645,494.793 549.5,493.5C 549.66,491.847 550.326,490.514 551.5,489.5C 552.117,489.611 552.617,489.944 553,490.5C 555.821,480.309 552.321,473.142 542.5,469C 536.975,468.48 531.642,467.647 526.5,466.5C 529.388,467.01 531.721,466.344 533.5,464.5 Z"/>
    <path fill="#634e08" d="M 528.5,469.5 C 523.833,469.5 519.167,469.5 514.5,469.5C 514.5,479.833 514.5,490.167 514.5,500.5C 518.833,500.5 523.167,500.5 527.5,500.5C 523.03,501.486 518.363,501.819 513.5,501.5C 513.5,490.5 513.5,479.5 513.5,468.5C 518.695,468.179 523.695,468.513 528.5,469.5 Z"/>
    <path fill="#f1d839" d="M 548.5,442.5 C 563.229,444.012 575.729,450.012 586,460.5C 594.588,474.458 594.588,488.458 586,502.5C 583.795,505.04 581.295,507.207 578.5,509C 597.885,514.38 608.551,527.047 610.5,547C 611.086,561.991 605.419,573.824 593.5,582.5C 580.154,589.753 565.821,593.42 550.5,593.5C 548.708,592.691 546.708,592.191 544.5,592C 552.383,591.803 560.05,590.969 567.5,589.5C 570.628,588.368 573.962,587.535 577.5,587C 605.809,576.061 614.309,556.561 603,528.5C 597.525,523.696 592.025,518.862 586.5,514C 582.812,512.818 579.145,511.652 575.5,510.5C 575.351,509.448 575.517,508.448 576,507.5C 589.461,498.452 593.795,486.119 589,470.5C 580.794,456.472 568.627,448.139 552.5,445.5C 550.924,444.857 549.59,443.857 548.5,442.5 Z"/>
    <path fill="#191a1e" d="M 528.5,469.5 C 534.341,469.807 540.008,470.974 545.5,473C 550.949,477.169 552.949,482.669 551.5,489.5C 550.326,490.514 549.66,491.847 549.5,493.5C 543.028,498.289 535.695,500.623 527.5,500.5C 523.167,500.5 518.833,500.5 514.5,500.5C 514.5,490.167 514.5,479.833 514.5,469.5C 519.167,469.5 523.833,469.5 528.5,469.5 Z"/>
    <path fill="#f3b333" d="M 509.5,505.5 C 520.973,507.23 532.306,506.23 543.5,502.5C 553.472,498.563 557.805,491.23 556.5,480.5C 557.222,480.918 557.722,481.584 558,482.5C 558.212,485.758 558.712,488.924 559.5,492C 559.167,492.333 558.833,492.667 558.5,493C 559.672,493.419 560.672,494.085 561.5,495C 560.333,495.5 559.5,496.333 559,497.5C 558.667,496.833 558.333,496.167 558,495.5C 556.98,496.891 556.147,498.391 555.5,500C 551.068,501.52 546.735,503.186 542.5,505C 543.167,505.333 543.833,505.667 544.5,506C 542.787,507.378 541.453,509.045 540.5,511C 541.01,513.41 541.01,516.076 540.5,519C 544.476,520.589 548.309,522.423 552,524.5C 552.702,523.205 553.369,521.872 554,520.5C 555.117,520.665 556.284,520.998 557.5,521.5C 558.382,522.76 559.382,523.926 560.5,525C 559.426,525.739 558.759,526.739 558.5,528C 561.959,530.761 563.959,534.261 564.5,538.5C 559.413,529.773 551.746,525.107 541.5,524.5C 531.013,523.506 520.346,523.172 509.5,523.5C 509.5,525.5 509.5,527.5 509.5,529.5C 509.5,543.5 509.5,557.5 509.5,571.5C 518.506,571.666 527.506,571.5 536.5,571C 541.684,570.548 546.684,569.381 551.5,567.5C 550.378,568.947 548.878,569.947 547,570.5C 547.232,574.079 547.399,577.245 547.5,580C 546.833,580.333 546.167,580.667 545.5,581C 548.167,581.667 548.167,582.333 545.5,583C 547.878,583.974 547.544,584.641 544.5,585C 546.112,585.72 547.612,585.554 549,584.5C 550.574,585.848 552.407,586.514 554.5,586.5C 560.455,585.341 566.455,584.508 572.5,584C 577.601,581.257 582.935,578.923 588.5,577C 590.074,575.174 590.907,573.007 591,570.5C 592.667,568.833 594.333,567.167 596,565.5C 596.667,566.167 597.333,566.833 598,567.5C 599.185,565.623 600.185,563.623 601,561.5C 602.557,554.247 602.89,546.914 602,539.5C 601.61,536.551 600.11,534.384 597.5,533C 598.711,531.887 598.711,530.72 597.5,529.5C 595.664,528.204 593.664,527.37 591.5,527C 590.624,525.414 589.624,523.914 588.5,522.5C 583.286,519.046 577.619,516.546 571.5,515C 570.282,513.562 569.615,511.895 569.5,510C 569.278,507.725 570.278,506.559 572.5,506.5C 571.306,508.484 571.306,510.484 572.5,512.5C 583.652,514.991 592.819,520.658 600,529.5C 608.386,545.377 606.886,560.21 595.5,574C 581.902,584.071 566.568,588.904 549.5,588.5C 546.482,588.335 543.482,588.502 540.5,589C 539.556,591.719 539.223,594.552 539.5,597.5C 539.5,603.833 539.5,610.167 539.5,616.5C 535.167,616.5 530.833,616.5 526.5,616.5C 526.5,609.167 526.5,601.833 526.5,594.5C 526.822,592.278 526.155,590.444 524.5,589C 518.472,588.17 512.472,588.336 506.5,589.5C 505.86,598.296 505.193,606.962 504.5,615.5C 502.955,614.77 502.122,613.437 502,611.5C 500.187,612.609 499.354,611.942 499.5,609.5C 498.127,609.657 496.793,609.49 495.5,609C 495.833,608.667 496.167,608.333 496.5,608C 494.843,601.644 493.677,595.144 493,588.5C 491.243,587.881 490.076,586.714 489.5,585C 490.755,582.078 492.422,579.411 494.5,577C 494.167,576.667 493.833,576.333 493.5,576C 494.471,574.796 495.471,574.296 496.5,574.5C 496.291,573.914 495.957,573.414 495.5,573C 497.046,571.56 497.879,569.727 498,567.5C 498.889,568.888 499.389,568.722 499.5,567C 498.72,556.292 498.387,545.292 498.5,534C 499.167,533.667 499.833,533.333 500.5,533C 500.718,528.831 500.385,524.497 499.5,520C 500.264,517.931 500.764,515.764 501,513.5C 501.333,514.167 501.667,514.833 502,515.5C 502.251,513.567 502.751,511.734 503.5,510C 503.316,507.724 503.316,505.39 503.5,503C 501.35,494.351 499.684,485.517 498.5,476.5C 498.385,473.612 499.052,470.945 500.5,468.5C 501.667,470.167 502.833,471.833 504,473.5C 504.415,471.709 505.415,470.376 507,469.5C 507.333,467.833 507.667,466.167 508,464.5C 508.169,478.339 508.669,492.006 509.5,505.5 Z"/>
    <path fill="#fafc8f" d="M 541.5,524.5 C 551.746,525.107 559.413,529.773 564.5,538.5C 567.304,551.439 562.97,561.106 551.5,567.5C 546.684,569.381 541.684,570.548 536.5,571C 527.506,571.5 518.506,571.666 509.5,571.5C 509.5,557.5 509.5,543.5 509.5,529.5C 511.481,542.124 512.148,555.124 511.5,568.5C 523.96,569.083 536.293,568.249 548.5,566C 561.991,559.852 565.825,550.019 560,536.5C 553.535,530.013 545.701,526.513 536.5,526C 530.167,525.667 523.833,525.333 517.5,525C 525.493,524.5 533.493,524.334 541.5,524.5 Z"/>
    <path fill="#f6ed59" d="M 541.5,524.5 C 533.493,524.334 525.493,524.5 517.5,525C 523.833,525.333 530.167,525.667 536.5,526C 545.701,526.513 553.535,530.013 560,536.5C 565.825,550.019 561.991,559.852 548.5,566C 536.293,568.249 523.96,569.083 511.5,568.5C 512.148,555.124 511.481,542.124 509.5,529.5C 509.5,527.5 509.5,525.5 509.5,523.5C 520.346,523.172 531.013,523.506 541.5,524.5 Z"/>
    <path fill="#715a10" d="M 536.5,529.5 C 529.167,529.5 521.833,529.5 514.5,529.5C 514.5,541.5 514.5,553.5 514.5,565.5C 514.5,565.833 514.5,566.167 514.5,566.5C 513.505,554.011 513.171,541.344 513.5,528.5C 521.352,528.175 529.018,528.508 536.5,529.5 Z"/>
    <path fill="#1d1e22" d="M 557.5,555.5 C 556.746,558.091 555.079,559.924 552.5,561C 549.326,562.725 545.993,564.058 542.5,565C 533.208,566.231 523.874,566.731 514.5,566.5C 514.5,566.167 514.5,565.833 514.5,565.5C 515.239,565.631 515.906,565.464 516.5,565C 515.513,554.582 515.18,544.082 515.5,533.5C 526.731,532.777 537.731,533.943 548.5,537C 555.597,541.105 558.597,547.271 557.5,555.5 Z"/>
    <path fill="#0f0e0d" d="M 536.5,529.5 C 544.857,529.117 552.024,531.784 558,537.5C 560.401,542.232 561.068,547.232 560,552.5C 559.623,553.942 558.79,554.942 557.5,555.5C 558.597,547.271 555.597,541.105 548.5,537C 537.731,533.943 526.731,532.777 515.5,533.5C 515.18,544.082 515.513,554.582 516.5,565C 515.906,565.464 515.239,565.631 514.5,565.5C 514.5,553.5 514.5,541.5 514.5,529.5C 521.833,529.5 529.167,529.5 536.5,529.5 Z"/>
    <path fill="#f9fa91" d="M 493.5,418.5 C 492.833,427.675 492.167,437.009 491.5,446.5C 479.884,447.479 468.218,447.812 456.5,447.5C 456.5,452.167 456.5,456.833 456.5,461.5C 463.508,461.334 470.508,461.5 477.5,462C 478.416,462.374 479.25,462.874 480,463.5C 480.667,497.833 480.667,532.167 480,566.5C 479.691,567.766 479.191,568.933 478.5,570C 467.456,572.213 460.456,578.713 457.5,589.5C 468.838,589.333 480.172,589.5 491.5,590C 492.484,598.749 492.817,607.582 492.5,616.5C 496.702,616.817 500.702,616.483 504.5,615.5C 505.193,606.962 505.86,598.296 506.5,589.5C 512.472,588.336 518.472,588.17 524.5,589C 526.155,590.444 526.822,592.278 526.5,594.5C 525.778,594.918 525.278,595.584 525,596.5C 524.828,603.346 524.328,610.013 523.5,616.5C 523.295,608.133 523.629,599.8 524.5,591.5C 518.5,591.5 512.5,591.5 506.5,591.5C 507.418,600.793 507.752,610.127 507.5,619.5C 501.5,619.5 495.5,619.5 489.5,619.5C 490.418,610.207 490.752,600.873 490.5,591.5C 478.833,591.5 467.167,591.5 455.5,591.5C 455.849,584.804 458.516,579.137 463.5,574.5C 468.227,571.544 473.06,568.878 478,566.5C 478.667,532.5 478.667,498.5 478,464.5C 469.931,464.248 461.764,464.248 453.5,464.5C 453.61,457.898 454.277,451.398 455.5,445C 467.162,444.5 478.829,444.333 490.5,444.5C 490.334,435.494 490.5,426.494 491,417.5C 492.388,416.446 493.888,416.28 495.5,417C 494.584,417.278 493.918,417.778 493.5,418.5 Z"/>
    <path fill="#bb9a23" d="M 488.5,414.5 C 488.5,424.167 488.5,433.833 488.5,443.5C 476.5,443.5 464.5,443.5 452.5,443.5C 463.988,442.505 475.655,442.172 487.5,442.5C 487.173,432.985 487.506,423.652 488.5,414.5 Z"/>
    <path fill="#f6b838" d="M 493.5,418.5 C 497.167,418.5 500.833,418.5 504.5,418.5C 504.334,427.839 504.5,437.173 505,446.5C 512,447.833 519,447.833 526,446.5C 526.5,437.173 526.666,427.839 526.5,418.5C 530.5,418.5 534.5,418.5 538.5,418.5C 538.5,425.167 538.5,431.833 538.5,438.5C 537.51,432.355 537.177,426.022 537.5,419.5C 534.5,419.5 531.5,419.5 528.5,419.5C 528.878,429.127 528.211,438.627 526.5,448C 529.028,450.075 528.861,450.908 526,450.5C 522.924,451.288 519.758,451.788 516.5,452C 517.167,452.333 517.833,452.667 518.5,453C 517.78,455.122 516.613,455.622 515,454.5C 514.535,455.931 513.701,457.097 512.5,458C 513.634,459.016 513.301,459.683 511.5,460C 516.386,461.224 521.386,461.891 526.5,462C 520.984,462.173 515.651,462.673 510.5,463.5C 509.504,477.323 509.171,491.323 509.5,505.5C 508.669,492.006 508.169,478.339 508,464.5C 507.667,466.167 507.333,467.833 507,469.5C 505.415,470.376 504.415,471.709 504,473.5C 502.833,471.833 501.667,470.167 500.5,468.5C 499.052,470.945 498.385,473.612 498.5,476.5C 499.684,485.517 501.35,494.351 503.5,503C 503.316,505.39 503.316,507.724 503.5,510C 502.751,511.734 502.251,513.567 502,515.5C 501.667,514.833 501.333,514.167 501,513.5C 500.764,515.764 500.264,517.931 499.5,520C 500.385,524.497 500.718,528.831 500.5,533C 499.833,533.333 499.167,533.667 498.5,534C 498.387,545.292 498.72,556.292 499.5,567C 499.389,568.722 498.889,568.888 498,567.5C 497.879,569.727 497.046,571.56 495.5,573C 495.957,573.414 496.291,573.914 496.5,574.5C 495.471,574.296 494.471,574.796 493.5,576C 493.833,576.333 494.167,576.667 494.5,577C 492.422,579.411 490.755,582.078 489.5,585C 490.076,586.714 491.243,587.881 493,588.5C 493.677,595.144 494.843,601.644 496.5,608C 496.167,608.333 495.833,608.667 495.5,609C 496.793,609.49 498.127,609.657 499.5,609.5C 499.354,611.942 500.187,612.609 502,611.5C 502.122,613.437 502.955,614.77 504.5,615.5C 500.702,616.483 496.702,616.817 492.5,616.5C 492.817,607.582 492.484,598.749 491.5,590C 480.172,589.5 468.838,589.333 457.5,589.5C 460.456,578.713 467.456,572.213 478.5,570C 479.191,568.933 479.691,567.766 480,566.5C 480.667,532.167 480.667,497.833 480,463.5C 479.25,462.874 478.416,462.374 477.5,462C 470.508,461.5 463.508,461.334 456.5,461.5C 456.5,456.833 456.5,452.167 456.5,447.5C 468.218,447.812 479.884,447.479 491.5,446.5C 492.167,437.009 492.833,427.675 493.5,418.5 Z"/>
    <path fill="#eedf4d" d="M 548.5,442.5 C 549.59,443.857 550.924,444.857 552.5,445.5C 548.5,445.5 544.5,445.5 540.5,445.5C 541.213,435.516 541.547,425.516 541.5,415.5C 535.833,415.5 530.167,415.5 524.5,415.5C 524.5,425.167 524.5,434.833 524.5,444.5C 521.167,444.5 517.833,444.5 514.5,444.5C 512.167,444.5 509.833,444.5 507.5,444.5C 507.193,434.418 507.526,424.418 508.5,414.5C 509.493,423.318 509.827,432.318 509.5,441.5C 513.634,442.485 517.968,442.818 522.5,442.5C 522.5,433.167 522.5,423.833 522.5,414.5C 522.611,413.883 522.944,413.383 523.5,413C 529.5,412.333 535.5,412.333 541.5,413C 542.416,413.374 543.25,413.874 544,414.5C 544.5,423.827 544.666,433.161 544.5,442.5C 545.833,442.5 547.167,442.5 548.5,442.5 Z"/>
    <path fill="#d3a33c" d="M 593.5,405.5 C 594.306,406.728 595.306,407.728 596.5,408.5C 595.209,408.263 594.209,408.596 593.5,409.5C 590.529,407.343 587.529,405.176 584.5,403C 529.907,374.158 479.241,379.658 432.5,419.5C 432.158,418.662 431.492,418.328 430.5,418.5C 438.463,410.379 447.463,403.545 457.5,398C 504.275,375.306 549.609,377.806 593.5,405.5 Z"/>
    <path fill="#dba83c" d="M 582.5,390.5 C 580.007,390.131 579.34,390.797 580.5,392.5C 513.303,364.217 456.303,377.884 409.5,433.5C 408.646,432.368 408.646,431.035 409.5,429.5C 415.928,421.568 422.928,414.068 430.5,407C 477.807,369.967 528.474,364.467 582.5,390.5 Z"/>
    <path fill="#e1ad36" d="M 597.5,389.5 C 597.5,390.833 596.833,391.5 595.5,391.5C 587.008,387.088 578.341,382.922 569.5,379C 510.282,359.75 458.615,371.917 414.5,415.5C 413.791,414.596 412.791,414.263 411.5,414.5C 423.992,400.511 438.659,389.345 455.5,381C 504.379,359.45 551.713,362.283 597.5,389.5 Z"/>
    <path fill="#1a1717" d="M 718.5,547.5 C 707.341,548.331 696.007,548.831 684.5,549C 686.087,549.862 687.754,550.529 689.5,551C 697.5,551.333 705.5,551.667 713.5,552C 714.737,552.232 715.737,552.732 716.5,553.5C 704.253,553.178 692.086,553.512 680,554.5C 673.018,592.482 655.185,624.148 626.5,649.5C 608.488,663.84 588.488,674.507 566.5,681.5C 547.24,687.108 527.573,689.442 507.5,688.5C 504.833,688.5 502.167,688.5 499.5,688.5C 485.697,686.201 472.03,682.868 458.5,678.5C 418.659,662.468 389.159,635.135 370,596.5C 368.285,593.603 365.785,592.269 362.5,592.5C 362.5,593.5 362.5,594.5 362.5,595.5C 361.594,597.914 359.928,598.747 357.5,598C 358.38,596.644 358.714,595.144 358.5,593.5C 360.69,592.252 361.023,590.586 359.5,588.5C 360.167,588.5 360.833,588.5 361.5,588.5C 364.654,589.967 367.654,589.634 370.5,587.5C 382.805,610.476 399.139,630.142 419.5,646.5C 466.389,683.178 518.055,691.345 574.5,671C 629.587,648.413 662.92,607.913 674.5,549.5C 688.795,547.517 703.462,546.85 718.5,547.5 Z"/>
    <path fill="#d4a532" d="M 540.5,642.5 C 539.329,641.655 537.995,640.989 536.5,640.5C 569.242,634.411 595.575,618.077 615.5,591.5C 616.496,591.586 617.329,591.252 618,590.5C 618.667,591.5 618.667,592.5 618,593.5C 598.441,619.541 572.608,635.875 540.5,642.5 Z"/>
    <path fill="#f8fba6" d="M 526.5,594.5 C 526.5,601.833 526.5,609.167 526.5,616.5C 530.833,616.5 535.167,616.5 539.5,616.5C 539.5,610.167 539.5,603.833 539.5,597.5C 540.29,598.609 540.79,599.942 541,601.5C 541.499,607.491 541.666,613.491 541.5,619.5C 535.5,619.5 529.5,619.5 523.5,619.5C 523.5,618.5 523.5,617.5 523.5,616.5C 524.328,610.013 524.828,603.346 525,596.5C 525.278,595.584 525.778,594.918 526.5,594.5 Z"/>
    <path fill="#93761a" d="M 521.5,594.5 C 517.833,594.5 514.167,594.5 510.5,594.5C 510.826,603.017 510.493,611.35 509.5,619.5C 509.5,610.833 509.5,602.167 509.5,593.5C 513.702,593.183 517.702,593.517 521.5,594.5 Z"/>
    <path fill="#1e1b1b" d="M 710.5,556.5 C 696.633,624.191 658.633,673.024 596.5,703C 574.348,712.122 551.348,717.622 527.5,719.5C 523.629,719.815 519.962,719.482 516.5,718.5C 516.5,709.833 516.5,701.167 516.5,692.5C 518.833,692.5 521.167,692.5 523.5,692.5C 523.5,700.5 523.5,708.5 523.5,716.5C 525.167,716.5 526.833,716.5 528.5,716.5C 528.61,708.475 528.276,700.475 527.5,692.5C 529.5,692.5 531.5,692.5 533.5,692.5C 534.099,700.486 534.432,708.486 534.5,716.5C 537.822,716.511 539.489,714.845 539.5,711.5C 538.157,704.453 537.824,697.453 538.5,690.5C 539.833,690.5 541.167,690.5 542.5,690.5C 543.963,693.203 544.796,696.203 545,699.5C 545.333,704.167 545.667,708.833 546,713.5C 549.198,714.819 551.364,713.819 552.5,710.5C 549.427,703.874 547.76,696.874 547.5,689.5C 549.5,689.167 551.5,688.833 553.5,688.5C 554.595,694.046 555.928,699.546 557.5,705C 556.481,707.549 556.481,710.049 557.5,712.5C 560.734,712.219 562.734,710.552 563.5,707.5C 561.14,701.406 558.807,695.406 556.5,689.5C 557.784,687.386 559.784,686.386 562.5,686.5C 565.681,693.363 568.681,700.363 571.5,707.5C 573.497,707.014 574.831,705.847 575.5,704C 571.821,697.808 568.821,691.308 566.5,684.5C 567.791,684.737 568.791,684.404 569.5,683.5C 570.93,683.579 572.264,683.246 573.5,682.5C 576.5,689.167 579.5,695.833 582.5,702.5C 584.786,702.04 586.119,700.707 586.5,698.5C 583.39,693.117 580.39,687.617 577.5,682C 579.579,680.36 581.912,679.194 584.5,678.5C 587.13,684.749 590.13,690.749 593.5,696.5C 594.833,695.833 595.833,694.833 596.5,693.5C 593.833,688.167 591.167,682.833 588.5,677.5C 591.668,675.292 595.001,673.792 598.5,673C 595.098,676.719 594.598,680.886 597,685.5C 600.19,680.399 602.69,675.065 604.5,669.5C 605.614,670.723 605.781,672.056 605,673.5C 603.203,678.909 601.037,684.075 598.5,689C 599.687,691.59 601.52,692.09 604,690.5C 606.177,685.405 607.01,680.072 606.5,674.5C 608.39,674.297 609.89,674.963 611,676.5C 612.669,680.346 613.836,684.346 614.5,688.5C 616.167,687.5 617.5,686.167 618.5,684.5C 616.984,679.448 614.984,674.614 612.5,670C 613.784,669.316 614.951,669.483 616,670.5C 618.167,674.167 620.333,677.833 622.5,681.5C 623.833,680.833 624.833,679.833 625.5,678.5C 622.523,672.525 618.19,667.858 612.5,664.5C 617.736,663.107 622.07,664.607 625.5,669C 626.899,669.595 628.232,669.428 629.5,668.5C 631.955,675.269 635.622,676.103 640.5,671C 635.633,666.468 631.133,661.634 627,656.5C 626.227,654.648 626.727,653.314 628.5,652.5C 630.797,650.706 632.963,648.706 635,646.5C 637.727,652.954 640.727,659.288 644,665.5C 646.782,667.011 648.615,666.178 649.5,663C 644.762,657.533 640.762,651.533 637.5,645C 638.357,644.311 639.023,643.478 639.5,642.5C 640.651,641.269 641.817,641.269 643,642.5C 646.308,647.308 649.808,651.975 653.5,656.5C 655.611,657.848 657.445,657.515 659,655.5C 655.271,650.752 650.938,646.086 646,641.5C 643.791,638.796 644.124,636.463 647,634.5C 652.134,638.633 656.968,643.133 661.5,648C 665.897,649.106 667.23,647.606 665.5,643.5C 660.245,639.956 655.079,636.29 650,632.5C 650.044,630.721 650.711,629.055 652,627.5C 652.837,625.993 654.004,625.493 655.5,626C 659.466,630.967 663.799,635.634 668.5,640C 671.244,640.628 673.244,639.628 674.5,637C 668.096,633.265 662.263,628.765 657,623.5C 656.956,621.24 657.789,619.24 659.5,617.5C 665.167,621.333 670.833,625.167 676.5,629C 678.607,629.854 679.941,629.188 680.5,627C 675.675,621.416 669.675,617.582 662.5,615.5C 662.299,612.235 663.466,609.569 666,607.5C 669.727,613.235 674.227,618.402 679.5,623C 683.48,623.359 684.813,621.692 683.5,618C 677.341,614.749 671.675,610.749 666.5,606C 667.098,603.952 668.431,602.785 670.5,602.5C 675.949,604.724 681.282,607.224 686.5,610C 687.793,610.49 689.127,610.657 690.5,610.5C 691.052,608.669 691.052,607.003 690.5,605.5C 684.342,602.836 678.009,600.67 671.5,599C 670.862,597.293 670.862,595.46 671.5,593.5C 679.592,594.754 687.592,596.42 695.5,598.5C 695.773,596.549 695.107,595.049 693.5,594C 687.206,592.01 680.872,590.177 674.5,588.5C 675.026,585.427 676.526,583.094 679,581.5C 685.505,584.667 692.339,586.667 699.5,587.5C 699.5,585.833 699.5,584.167 699.5,582.5C 692.395,581.307 685.395,579.641 678.5,577.5C 679.308,575.075 680.308,572.742 681.5,570.5C 687.628,572.932 693.794,575.265 700,577.5C 702.909,576.571 704.075,574.571 703.5,571.5C 696.262,569.849 688.928,568.849 681.5,568.5C 680.824,564.51 682.49,562.843 686.5,563.5C 692.915,564.26 699.248,565.093 705.5,566C 706.38,564.644 706.714,563.144 706.5,561.5C 698.505,561.065 690.505,560.731 682.5,560.5C 682.33,559.178 682.663,558.011 683.5,557C 692.494,556.5 701.494,556.334 710.5,556.5 Z"/>
    <path fill="#dba835" d="M 671.5,548.5 C 671.337,550.857 671.503,553.19 672,555.5C 672.002,552.949 672.836,550.949 674.5,549.5C 662.92,607.913 629.587,648.413 574.5,671C 518.055,691.345 466.389,683.178 419.5,646.5C 419.167,645.167 418.833,643.833 418.5,642.5C 423.184,645.526 427.851,648.526 432.5,651.5C 462.15,672.207 495.15,681.04 531.5,678C 607.547,666.448 654.214,623.282 671.5,548.5 Z"/>
    <path fill="#161618" d="M 329.5,462.5 C 324.953,480.542 322.953,498.875 323.5,517.5C 321.869,573.5 340.202,621.5 378.5,661.5C 425.336,710.702 482.67,730.202 550.5,720C 614.866,706.753 662.866,671.586 694.5,614.5C 695.895,612.946 696.561,613.279 696.5,615.5C 674.625,665.132 636.959,699.632 583.5,719C 500.537,744.468 428.704,726.301 368,664.5C 354.271,647.397 342.271,629.063 332,609.5C 316.172,567.434 313.172,524.434 323,480.5C 323.667,479.833 324.333,479.167 325,478.5C 325.813,473.185 326.479,467.852 327,462.5C 327.77,461.402 328.603,461.402 329.5,462.5 Z"/>
    <path fill="#ebbd2c" d="M 626.5,649.5 C 627.401,650.29 628.068,651.29 628.5,652.5C 626.727,653.314 626.227,654.648 627,656.5C 631.133,661.634 635.633,666.468 640.5,671C 635.622,676.103 631.955,675.269 629.5,668.5C 628.232,669.428 626.899,669.595 625.5,669C 622.07,664.607 617.736,663.107 612.5,664.5C 618.19,667.858 622.523,672.525 625.5,678.5C 624.833,679.833 623.833,680.833 622.5,681.5C 620.333,677.833 618.167,674.167 616,670.5C 614.951,669.483 613.784,669.316 612.5,670C 614.984,674.614 616.984,679.448 618.5,684.5C 617.5,686.167 616.167,687.5 614.5,688.5C 613.836,684.346 612.669,680.346 611,676.5C 609.89,674.963 608.39,674.297 606.5,674.5C 607.01,680.072 606.177,685.405 604,690.5C 601.52,692.09 599.687,691.59 598.5,689C 601.037,684.075 603.203,678.909 605,673.5C 605.781,672.056 605.614,670.723 604.5,669.5C 602.69,675.065 600.19,680.399 597,685.5C 594.598,680.886 595.098,676.719 598.5,673C 595.001,673.792 591.668,675.292 588.5,677.5C 591.167,682.833 593.833,688.167 596.5,693.5C 595.833,694.833 594.833,695.833 593.5,696.5C 590.13,690.749 587.13,684.749 584.5,678.5C 581.912,679.194 579.579,680.36 577.5,682C 580.39,687.617 583.39,693.117 586.5,698.5C 586.119,700.707 584.786,702.04 582.5,702.5C 579.5,695.833 576.5,689.167 573.5,682.5C 572.264,683.246 570.93,683.579 569.5,683.5C 568.127,683.657 566.793,683.49 565.5,683C 566.056,682.617 566.389,682.117 566.5,681.5C 588.488,674.507 608.488,663.84 626.5,649.5 Z"/>
    <path fill="#372919" d="M 621.5,657.5 C 625,659.844 627.667,663.011 629.5,667C 626.507,664.872 623.507,662.372 620.5,659.5C 620.863,658.817 621.196,658.15 621.5,657.5 Z"/>
    <path fill="#d3ae32" d="M 485.5,639.5 C 486.919,638.549 488.585,638.216 490.5,638.5C 505.767,640.263 521.101,640.93 536.5,640.5C 537.995,640.989 539.329,641.655 540.5,642.5C 526.855,643.573 513.188,643.74 499.5,643C 494.773,641.921 490.106,640.755 485.5,639.5 Z"/>
    <path fill="#d5a836" d="M 710.5,556.5 C 711.391,557.11 712.391,557.443 713.5,557.5C 709.763,577.377 703.43,596.377 694.5,614.5C 662.866,671.586 614.866,706.753 550.5,720C 482.67,730.202 425.336,710.702 378.5,661.5C 378.842,660.662 379.508,660.328 380.5,660.5C 414.65,695.682 456.317,715.348 505.5,719.5C 512.833,720.833 520.167,720.833 527.5,719.5C 551.348,717.622 574.348,712.122 596.5,703C 658.633,673.024 696.633,624.191 710.5,556.5 Z"/>
    <path fill="#95722b" d="M 513.5,718.5 C 514.5,718.5 515.5,718.5 516.5,718.5C 519.962,719.482 523.629,719.815 527.5,719.5C 520.167,720.833 512.833,720.833 505.5,719.5C 508.385,719.806 511.052,719.473 513.5,718.5 Z"/>
    <path fill="#dab033" d="M 534.5,690.5 C 535.833,690.5 537.167,690.5 538.5,690.5C 537.824,697.453 538.157,704.453 539.5,711.5C 539.489,714.845 537.822,716.511 534.5,716.5C 534.432,708.486 534.099,700.486 533.5,692.5C 531.5,692.5 529.5,692.5 527.5,692.5C 528.276,700.475 528.61,708.475 528.5,716.5C 526.833,716.5 525.167,716.5 523.5,716.5C 523.5,708.5 523.5,700.5 523.5,692.5C 527.167,691.833 530.833,691.167 534.5,690.5 Z"/>
    <path fill="#e7bd35" d="M 553.5,688.5 C 554.609,688.557 555.609,688.89 556.5,689.5C 558.807,695.406 561.14,701.406 563.5,707.5C 562.734,710.552 560.734,712.219 557.5,712.5C 556.481,710.049 556.481,707.549 557.5,705C 555.928,699.546 554.595,694.046 553.5,688.5 Z"/>
    <path fill="#d5a82e" d="M 512.5,692.5 C 513.833,692.5 515.167,692.5 516.5,692.5C 516.5,701.167 516.5,709.833 516.5,718.5C 515.5,718.5 514.5,718.5 513.5,718.5C 512.507,710.016 512.174,701.349 512.5,692.5 Z"/>
    <path fill="#d1a528" d="M 499.5,691.5 C 502.279,691.279 504.946,691.612 507.5,692.5C 507.666,699.841 507.5,707.174 507,714.5C 505.644,715.38 504.144,715.714 502.5,715.5C 502.186,707.913 502.519,700.413 503.5,693C 501.942,692.79 500.609,692.29 499.5,691.5 Z"/>
    <path fill="#e5b833" d="M 542.5,690.5 C 543.919,689.549 545.585,689.216 547.5,689.5C 547.76,696.874 549.427,703.874 552.5,710.5C 551.364,713.819 549.198,714.819 546,713.5C 545.667,708.833 545.333,704.167 545,699.5C 544.796,696.203 543.963,693.203 542.5,690.5 Z"/>
    <path fill="#e7c132" d="M 493.5,690.5 C 494.222,690.918 494.722,691.584 495,692.5C 495.383,691.944 495.883,691.611 496.5,691.5C 495.364,699.178 495.364,706.844 496.5,714.5C 494.801,714.66 493.134,714.494 491.5,714C 490.919,713.107 490.585,712.107 490.5,711C 492.047,704.244 493.047,697.411 493.5,690.5 Z"/>
    <path fill="#e6bc29" d="M 566.5,684.5 C 568.821,691.308 571.821,697.808 575.5,704C 574.831,705.847 573.497,707.014 571.5,707.5C 568.681,700.363 565.681,693.363 562.5,686.5C 563.514,685.326 564.847,684.66 566.5,684.5 Z"/>
    <path fill="#f8e94a" d="M 499.5,688.5 C 502.167,688.5 504.833,688.5 507.5,688.5C 516.5,689.167 525.5,689.833 534.5,690.5C 530.833,691.167 527.167,691.833 523.5,692.5C 521.167,692.5 518.833,692.5 516.5,692.5C 515.167,692.5 513.833,692.5 512.5,692.5C 510.833,692.5 509.167,692.5 507.5,692.5C 504.946,691.612 502.279,691.279 499.5,691.5C 498.5,691.5 497.5,691.5 496.5,691.5C 495.883,691.611 495.383,691.944 495,692.5C 494.722,691.584 494.222,690.918 493.5,690.5C 492.167,690.5 490.833,690.5 489.5,690.5C 492.337,688.598 495.671,687.931 499.5,688.5 Z"/>
    <path fill="#eed753" d="M 566.5,681.5 C 566.389,682.117 566.056,682.617 565.5,683C 566.793,683.49 568.127,683.657 569.5,683.5C 568.791,684.404 567.791,684.737 566.5,684.5C 564.847,684.66 563.514,685.326 562.5,686.5C 559.784,686.386 557.784,687.386 556.5,689.5C 555.609,688.89 554.609,688.557 553.5,688.5C 551.5,688.833 549.5,689.167 547.5,689.5C 545.585,689.216 543.919,689.549 542.5,690.5C 541.167,690.5 539.833,690.5 538.5,690.5C 537.167,690.5 535.833,690.5 534.5,690.5C 525.5,689.833 516.5,689.167 507.5,688.5C 527.573,689.442 547.24,687.108 566.5,681.5 Z"/>
    <path fill="#e9c539" d="M 458.5,678.5 C 472.03,682.868 485.697,686.201 499.5,688.5C 495.671,687.931 492.337,688.598 489.5,690.5C 488.504,690.414 487.671,690.748 487,691.5C 486.102,695.821 485.269,700.155 484.5,704.5C 485.456,707.081 485.456,709.581 484.5,712C 481.696,712.971 479.696,712.138 478.5,709.5C 480.475,703.6 482.142,697.6 483.5,691.5C 482.323,689.025 480.323,688.025 477.5,688.5C 475.308,695.236 473.641,702.069 472.5,709C 470.223,708.915 468.556,707.749 467.5,705.5C 469.832,699.506 472.165,693.506 474.5,687.5C 472.754,686.605 470.92,685.938 469,685.5C 465,691.179 462.333,697.513 461,704.5C 457.359,706.367 455.692,705.367 456,701.5C 459.361,696.112 462.194,690.446 464.5,684.5C 462.589,683.523 460.589,682.857 458.5,682.5C 457.398,680.908 458.065,680.075 460.5,680C 459.584,679.722 458.918,679.222 458.5,678.5 Z"/>
    <path fill="#332a14" d="M 408.5,678.5 C 407.47,674.344 408.303,670.344 411,666.5C 411.383,667.056 411.883,667.389 412.5,667.5C 412.351,668.552 412.517,669.552 413,670.5C 415.682,667.65 418.516,664.984 421.5,662.5C 424.429,663.649 424.929,665.315 423,667.5C 421.951,666.483 420.784,666.316 419.5,667C 416.982,669.756 413.982,671.756 410.5,673C 408.845,674.444 408.178,676.278 408.5,678.5 Z"/>
    <path fill="#977d42" d="M 683.5,725.5 C 686.764,727.094 689.431,729.427 691.5,732.5C 688.236,730.906 685.569,728.573 683.5,725.5 Z"/>
  </g>
</svg>